<?xml version="1.0" encoding="utf-8"?>
<svg version="1.1" xmlns:xlink="http://www.w3.org/1999/xlink" width="92px" height="100px" xmlns="http://www.w3.org/2000/svg">
  <defs>
    <mask fill="white" id="clip70">
      <path d="M 91.05479452054794 24.695121951219512  L 46.31506849315068 0.3048780487804878  L 0.6301369863013698 24.695121951219512  L 0.6301369863013698 74.08536585365853  L 45.054794520547944 100  L 91.05479452054794 74.08536585365853  L 91.05479452054794 24.695121951219512  Z " fill-rule="evenodd" />
    </mask>
  </defs>
  <g transform="matrix(1 0 0 1 -275 -208 )">
    <path d="M 91.05479452054794 24.695121951219512  L 46.31506849315068 0.3048780487804878  L 0.6301369863013698 24.695121951219512  L 0.6301369863013698 74.08536585365853  L 45.054794520547944 100  L 91.05479452054794 74.08536585365853  L 91.05479452054794 24.695121951219512  Z " fill-rule="nonzero" fill="#024a9f" stroke="none" transform="matrix(1 0 0 1 275 208 )" />
    <path d="M 91.05479452054794 24.695121951219512  L 46.31506849315068 0.3048780487804878  L 0.6301369863013698 24.695121951219512  L 0.6301369863013698 74.08536585365853  L 45.054794520547944 100  L 91.05479452054794 74.08536585365853  L 91.05479452054794 24.695121951219512  Z " stroke-width="2" stroke="#004294" fill="none" transform="matrix(1 0 0 1 275 208 )" mask="url(#clip70)" />
  </g>
</svg>