<svg xmlns="http://www.w3.org/2000/svg" xmlns:xlink="http://www.w3.org/1999/xlink" width="911.8455810546875" height="727" viewBox="0 0 911.8455810546875 727" fill="none">
<path d="M5.07378 521.948L124.708 591.107C131.473 595.013 142.429 595.013 149.194 591.107L268.829 521.995C275.594 518.09 275.594 511.765 268.829 507.844L149.304 438.843C142.539 434.937 131.556 434.937 124.818 438.843L5.07378 507.797C-1.69127 511.702 -1.69127 517.995 5.07378 521.948Z"   fill="url(#linear_fill_ABC4E546-F485-4A50-9951-4BAF5F92F821)" >
</path>
<path d="M322 590.167L507.009 697.159C517.471 703.152 534.414 703.152 544.875 697.159L729.885 590.216C740.347 584.223 740.347 574.39 729.885 568.348L545.002 461.577C534.541 455.559 517.556 455.51 507.137 461.577L322 568.299C311.538 574.317 311.538 584.101 322 590.167Z"   fill="url(#linear_fill_13DB40CA-F9C1-4024-B17D-E25550AF9C40)" >
</path>
<path d="M579.451 361.745L703.809 428.086C710.812 431.833 722.257 431.833 729.29 428.086L853.647 361.745C860.622 357.983 860.622 351.915 853.647 348.168L729.375 281.994C722.371 278.247 710.955 278.247 703.894 281.994L579.48 348.168C572.419 351.915 572.419 357.998 579.451 361.745Z"   fill="url(#linear_fill_9A4398EE-2D26-49A4-BEAA-660D69898784)" >
</path>
<path d="M186.667 297.555L266.325 343.612C270.829 346.213 278.124 346.213 282.629 343.612L362.287 297.555C366.791 294.964 366.791 290.741 362.287 288.14L282.702 242.188C278.197 239.587 270.902 239.587 266.398 242.188L186.685 288.14C182.162 290.741 182.162 294.996 186.667 297.555Z"   fill="url(#linear_fill_E66656B1-39A2-47DE-804B-C64601A50B62)" >
</path>
<path d="M828.926 386.465C851.612 417.475 863.156 450.473 863.156 484.73C863.156 504.257 859.308 523.59 852.013 541.663C831.251 593.751 781.469 640.897 711.728 674.427C640.142 708.83 553.887 727 462.26 727C370.634 727 284.379 708.83 212.873 674.427C143.212 640.897 93.3503 593.751 72.6682 541.615C65.2932 523.541 61.5256 504.208 61.5256 484.73C61.5256 432.351 88.781 382.346 140.406 340.24C162.371 322.215 188.985 305.983 219.286 291.979C289.349 259.564 373.279 242.459 462.26 242.459C487.031 242.411 511.801 243.865 536.491 246.723C611.444 255.009 680.624 276.183 736.578 307.921C776.018 330.258 807.122 356.714 828.926 386.465ZM857.006 484.76C857.006 503.461 853.296 522.02 846.271 539.351C826.144 590.022 777.365 636.019 709.012 668.886C638.291 702.888 552.967 720.88 462.277 720.88C371.586 720.88 286.263 702.888 215.541 668.886C147.267 636.019 98.5672 590.022 78.3611 539.351C71.3363 522.02 67.7056 503.461 67.7056 484.76C67.7056 434.278 94.2261 386.015 144.268 345.071C165.895 327.362 192.02 311.401 221.935 297.659C291.077 265.593 374.191 248.64 462.277 248.64C486.824 248.64 511.371 250.057 535.76 252.89C609.955 261.06 678.308 281.98 733.559 313.337C772.235 335.249 802.702 361.08 824.013 390.17C845.876 420.063 857.006 451.892 857.006 484.76Z" fill-rule="evenodd"  fill="#F3F6FF" >
</path>
<path d="M201.314 517.119C196.373 504.947 193.796 491.928 193.796 478.78C193.796 443.5 212.109 409.847 246.802 381.532C261.571 369.458 279.348 358.555 299.702 349.214C346.533 327.506 402.708 316.05 462.267 316.05C478.862 316.017 495.457 316.994 511.944 318.881C562.104 324.447 608.398 338.604 645.831 359.889C699.858 390.483 730.846 433.834 730.846 478.78C730.846 491.928 728.268 504.947 723.327 517.152C709.417 552.139 675.959 583.839 629.182 606.328C581.331 629.338 523.598 641.51 462.267 641.51C400.99 641.51 343.257 629.338 295.405 606.295C248.628 583.806 215.224 552.139 201.314 517.119ZM462.211 635.32C401.827 635.32 345.011 623.36 298.005 600.725C252.73 578.934 220.361 548.409 206.983 514.815C202.366 503.388 200.006 491.146 200.006 478.78C200.006 445.405 217.528 413.44 250.684 386.327C265.058 374.586 282.423 363.973 302.254 354.8C348.316 333.51 403.663 322.239 462.263 322.239C478.631 322.208 494.999 323.147 511.21 324.994C560.629 330.505 606.114 344.405 642.732 365.257C695.562 395.156 724.626 435.481 724.626 478.78C724.626 491.146 722.212 503.388 717.596 514.847C704.218 548.409 671.849 578.934 626.469 600.725C579.411 623.329 522.594 635.32 462.211 635.32Z" fill-rule="evenodd"  fill="#F3F6FF" >
</path>
<path d="M489.478 517.76L370.246 448.937L400.069 431.72L519.286 500.552L489.478 517.76Z"   fill="url(#linear_fill_93B424FE-95ED-4512-AB48-60E171448D93)" >
</path>
<path d="M539.153 489.08L400.056 408.771L429.868 391.57L568.966 471.87L539.153 489.08Z"   fill="url(#linear_fill_3D73DEE6-572F-407F-AC27-FFE9CEF23B83)" >
</path>
<path d="M283.575 445.179C283.575 388.203 360.398 342.05 455.165 342.05C468.958 342.05 482.785 343.05 496.441 345.05C571.273 356.196 626.72 396.776 626.686 445.215C626.686 445.215 626.651 447.215 626.617 448.216C626.377 453.145 625.588 458.003 624.25 462.754C624.25 462.754 622.877 467.148 622.019 469.292C620.338 473.543 618.245 477.651 615.809 481.544C594.502 515.552 544.168 540.986 482.991 546.987L482.991 681.159C482.991 681.159 482.991 699.306 451.528 699.27C421.54 699.27 420.099 681.266 420.099 681.266L420.099 546.201C361.015 538.842 313.014 513.158 293.079 479.222C291.227 476.043 289.614 472.721 288.276 469.292C287.384 467.148 286.011 462.683 286.011 462.683C284.364 457.003 283.575 451.109 283.575 445.179ZM449.624 517.703C417.707 516.891 388.772 508.998 367.129 496.599C352.674 488.293 341.483 477.978 334.778 466.407C333.376 464.062 332.178 461.595 331.184 459.051C328.864 453.365 327.666 447.296 327.666 441.15C327.666 398.835 384.744 364.52 455.131 364.52C465.404 364.505 475.652 365.256 485.799 366.757C529.698 373.302 564.623 393.455 577.37 419.372C580.786 426.115 582.57 433.564 582.596 441.135C582.596 445.978 581.856 450.79 580.378 455.403C579.995 456.645 579.613 457.855 579.129 459.051C565.694 492.753 515.243 517.78 455.131 517.78C453.295 517.78 451.46 517.78 449.624 517.703Z" fill-rule="evenodd"  fill="url(#linear_fill_6F9320F9-F1A3-405F-ADC8-D0C8D6444F0A)" >
</path>
<path d="M582.616 441.15C582.61 445.993 581.868 450.812 580.405 455.43L529.216 425.15L559.007 408.78L577.377 419.37C580.789 426.125 582.584 433.584 582.616 441.15Z"   fill="url(#linear_fill_B53C3183-25F6-4327-BB29-A720C19AD193)" >
</path>
<path d="M449.656 517.7C417.716 516.889 388.788 509 367.146 496.599L390.149 483.34L449.656 517.7Z"   fill="url(#linear_fill_9DBD98E3-C272-4282-A545-73AC73571E93)" >
</path>
<g opacity="0.54">
<path d="M582.616 441.15C582.616 447.28 581.417 453.365 579.148 459.051C565.687 492.753 515.258 517.78 455.141 517.78C399.485 517.78 352.141 496.324 334.753 466.407C333.376 464.062 332.178 461.595 331.184 459.051C328.864 453.365 327.666 447.296 327.666 441.15C327.666 398.835 384.723 364.52 455.141 364.52C465.39 364.505 475.638 365.256 485.786 366.758C541.416 375.003 582.616 405.164 582.616 441.15Z"   fill="url(#linear_fill_3D034F8E-83E5-4C58-97BD-82E8827AF2F7)" >
</path>
</g>
<path d="M455.165 671.48C453.96 671.306 452.743 671.218 451.526 671.22C446.446 671.22 441.955 672.73 439.216 675.03C438.437 674.407 437.775 673.647 437.265 672.79C437.102 672.508 436.963 672.214 436.845 671.91C436.574 671.24 436.429 670.523 436.426 669.799C436.426 664.8 443.196 660.72 451.526 660.72C452.743 660.721 453.96 660.812 455.165 660.989C461.736 662 466.626 665.531 466.626 669.799C466.623 670.523 466.478 671.24 466.206 671.91C465.683 673.135 464.871 674.213 463.835 675.05C461.322 673.097 458.327 671.863 455.165 671.48Z"   fill="url(#linear_fill_C6ECF9B7-34FB-4CB0-A5DA-D02F3101C670)" >
</path>
<path d="M463.836 675.05C461.095 677.37 456.605 678.87 451.526 678.87C446.446 678.87 441.956 677.37 439.216 675.03C441.956 672.73 446.446 671.22 451.526 671.22C452.744 671.218 453.96 671.306 455.164 671.48C458.326 671.863 461.322 673.096 463.836 675.05Z"   fill="#F3F6FF" >
</path>
<path d="M483.006 681.17L483.006 705.649C483.006 705.649 483.006 723.78 451.554 723.78C420.103 723.78 420.116 705.641 420.116 705.641L420.116 681.268C420.185 682.802 421.575 699.271 451.554 699.271C483.006 699.3 483.006 681.17 483.006 681.17Z"   fill="url(#linear_fill_2F6826F0-A199-4DC5-A7DE-BA71FF3EBB5E)" >
</path>
<path d="M293.11 514.216C291.253 511.034 289.642 507.716 288.304 504.288C285.177 496.645 283.565 488.472 283.565 480.216L283.565 445.21C283.552 451.126 284.371 457.015 286.01 462.7C286.638 464.93 287.402 467.133 288.276 469.296C289.615 472.723 291.212 476.041 293.083 479.21C313.006 513.156 361.003 538.846 420.116 546.204L420.116 581.21C360.839 573.812 312.733 548.026 293.11 514.216Z" fill-rule="evenodd"  fill="url(#linear_fill_D67AD8BA-AE6A-414A-AB56-2A32C12535ED)" >
</path>
<path d="M626.716 448.14L626.716 480.199C626.701 488.445 625.12 496.624 622.058 504.281C606.06 544.332 551.266 575.28 482.976 582L482.976 546.996C544.123 540.999 594.46 515.565 615.791 481.551C618.235 477.656 620.333 473.547 622.058 469.277C622.906 467.121 623.654 464.939 624.272 462.744C625.623 458.005 626.414 453.12 626.716 448.14Z"   fill="url(#linear_fill_B6BA1064-91BA-44C6-AAD1-A8DA3530328E)" >
</path>
<g opacity="0.7">
<path d="M551.903 445.872C550.954 447.926 549.054 449.388 546.819 449.781L543.705 450.33C539.794 450.237 538.76 447.199 538.62 444.481C538.844 443.104 538.942 441.72 538.942 440.329C538.942 419.037 512.446 399.642 475.949 394.213C469.063 393.193 462.107 392.687 455.151 392.701C443.922 392.672 432.748 394.035 421.867 396.76C419.437 397.452 416.825 396.774 415.037 394.984C413.249 393.193 412.579 390.575 413.291 388.143C413.99 385.718 415.945 383.863 418.417 383.299C430.443 380.382 442.776 378.934 455.151 378.998C462.806 378.977 470.446 379.519 478.002 380.617C521.999 387.173 552.686 411.718 552.686 440.329C552.686 441.328 552.686 442.327 552.56 443.397C552.504 444.26 552.281 445.094 551.903 445.872Z"   fill="#FFFFFF" >
</path>
</g>
<path d="M538.946 440.33C538.945 441.719 538.838 443.107 538.626 444.48C538.551 443.088 538.659 441.694 538.946 440.33Z"   fill="#FFFFFF" >
</path>
<g opacity="0.7">
<path d="M552.896 465.541C552.891 466.11 552.78 466.672 552.566 467.2C551.326 470.33 546.635 472.65 541.056 472.65C535.886 472.65 531.487 470.651 529.876 467.88C529.748 467.662 529.637 467.435 529.545 467.2C529.327 466.673 529.216 466.11 529.216 465.541C529.216 461.61 534.515 458.42 541.056 458.42C542.01 458.417 542.962 458.488 543.907 458.631C549.067 459.4 552.896 462.199 552.896 465.541Z"   fill="#FFFFFF" >
</path>
</g>
<path d="M211.141 490.098C210.409 491.909 209.474 493.632 208.359 495.231C202.434 503.751 190.888 510.508 176.516 513.819C169.904 515.32 163.145 516.066 156.364 516.05C139.367 516.05 124.194 511.528 113.865 504.398C108.031 500.4 103.75 495.482 101.61 490.098C100.585 487.589 100.056 484.901 100.056 482.19C100.056 480.213 100.337 478.248 100.9 476.35C105.496 492.27 128.576 504.351 156.364 504.351C184.153 504.351 207.255 492.262 211.851 476.35C212.414 478.248 212.696 480.213 212.696 482.19C212.696 484.901 212.166 487.589 211.141 490.098Z"   fill="url(#linear_fill_AE7ED18B-A29D-459D-90F9-828791976A42)" >
</path>
<path d="M101.61 462.601C102.455 464.682 103.559 466.648 104.899 468.451C113.674 480.3 133.42 488.548 156.364 488.548C179.32 488.548 199.089 480.3 207.852 468.441C209.193 466.638 210.296 464.677 211.141 462.601C212.166 460.088 212.696 457.401 212.696 454.69L212.696 470.512C212.696 472.488 212.414 474.455 211.851 476.352C207.255 492.268 184.153 504.35 156.364 504.35C128.576 504.35 105.496 492.258 100.9 476.352C100.337 474.455 100.056 472.488 100.056 470.512L100.056 454.69C100.056 457.401 100.585 460.088 101.61 462.601Z"   fill="#335089" >
</path>
<path d="M156.421 420.84C170.839 420.84 183.995 424.09 193.952 429.453C205.43 435.662 212.696 444.66 212.696 454.688C212.696 457.404 212.166 460.098 211.141 462.61C210.409 464.418 209.474 466.138 208.359 467.743C202.434 476.247 190.888 483.012 176.516 486.323C169.904 487.819 163.145 488.571 156.364 488.55C139.367 488.55 124.194 484.041 113.865 476.897C108.031 472.902 103.75 467.98 101.599 462.61C100.585 460.092 100.067 457.404 100.056 454.688C100.191 449.082 102.32 443.706 106.059 439.528C115.307 428.451 134.388 420.84 156.421 420.84Z"   fill="url(#linear_fill_0E9D6095-1D4C-4903-94DE-26FA7B14A24D)" >
</path>
<path d="M193.906 429.451L155.002 452.503L113.835 476.9C107.996 472.897 103.715 467.981 101.565 462.61C100.551 460.093 100.035 457.402 100.026 454.689C100.157 449.083 102.288 443.707 106.025 439.53C115.272 428.447 134.357 420.84 156.382 420.84C170.783 420.84 183.945 424.091 193.906 429.451Z"   fill="url(#linear_fill_58EDD8EB-0D88-4585-8711-3EBF955EAC55)" >
</path>
<path d="M212.696 454.691C212.69 457.405 212.165 460.097 211.138 462.609C210.405 464.42 209.477 466.139 208.357 467.74L155.006 452.501L193.877 429.45C205.438 435.661 212.696 444.659 212.696 454.691Z"   fill="url(#linear_fill_EDB1F041-198F-4324-ACA3-6D97535135FF)" >
</path>
<path d="M193.906 429.449L155.01 452.5L106.006 439.501C115.253 428.419 134.336 420.81 156.364 420.81C170.788 420.839 183.947 424.09 193.906 429.449Z"   fill="url(#linear_fill_1B26C6C6-2B9F-412E-B1B1-B242C3670B86)" >
</path>
<path d="M208.356 467.739C202.434 476.248 190.883 483.009 176.516 486.32L155.006 452.5L208.356 467.739Z"   fill="url(#linear_fill_34F31B5A-67A8-478D-A189-C4450BAD651E)" >
</path>
<path d="M695.526 456.27L717.886 469.18L740.256 456.28L717.886 443.38L695.526 456.27Z"   fill="url(#linear_fill_564F24FB-2432-4BB1-B71E-E03394ABFBEE)" >
</path>
<path d="M695.526 456.27L695.526 520.817L717.896 533.72L717.887 469.181L695.526 456.27Z"   fill="url(#linear_fill_89832C07-920D-4F9F-B7DE-F7474A34B054)" >
</path>
<path d="M717.894 533.72L740.255 520.819L740.255 456.28L717.885 469.182L717.894 533.72Z"   fill="#E6EDFF" >
</path>
<path d="M744.686 445L767.046 457.9L789.416 445.01L767.046 432.11L744.686 445Z"   fill="url(#linear_fill_F58204D3-5B33-48C5-B4B4-4C347E4EE835)" >
</path>
<path d="M744.686 445L744.686 549.361L767.056 562.26L767.047 457.899L744.686 445Z"   fill="url(#linear_fill_5C2D3A01-39F8-491D-8102-FF4B5A80A2F4)" >
</path>
<path d="M767.055 562.26L789.416 549.351L789.416 445.01L767.046 457.896L767.055 562.26Z"   fill="#E6EDFF" >
</path>
<path d="M793.896 432.27L816.256 445.18L838.625 432.28L816.256 419.38L793.896 432.27Z"   fill="url(#linear_fill_1291D4C3-88B7-411D-A385-EE790F76B8F9)" >
</path>
<path d="M793.896 432.28L793.896 576.455L816.266 589.35L816.257 445.175L793.896 432.28Z"   fill="url(#linear_fill_AF8D88A2-3667-4C0A-B31B-E8293B732BC0)" >
</path>
<path d="M816.265 589.35L838.626 576.439L838.626 432.28L816.256 445.175L816.265 589.35Z"   fill="#E6EDFF" >
</path>
<path d="M824.189 474.052C835.908 473.192 848.719 479.222 859.347 490.579C868.128 499.938 874.145 511.544 876.729 524.122C879.125 536.412 877.405 547.565 871.875 555.519C867.555 561.918 860.486 565.932 852.772 566.367C852.097 566.422 851.359 566.45 850.628 566.45C839.537 566.45 827.629 560.448 817.623 549.84C814.489 546.493 811.692 542.83 809.273 538.928C804.34 531.076 801.096 522.281 799.753 513.098C798.214 502.102 800.114 492.105 805.118 484.873C809.43 478.482 816.484 474.478 824.189 474.052ZM806.951 486.075L807.007 486.114C810.938 480.28 817.362 476.615 824.387 476.2C835.277 475.407 847.799 481.329 857.798 492.053C875.379 510.832 880.913 538.731 870.127 554.257C866.173 560.117 859.712 563.783 852.657 564.18C841.768 564.973 829.253 559.042 819.254 548.327C816.22 545.084 813.512 541.542 811.168 537.761C806.384 530.165 803.246 521.644 801.955 512.761C800.494 502.296 802.273 492.816 806.951 486.075ZM806.951 486.075L806.955 486.07L806.057 485.453L806.951 486.075Z" fill-rule="evenodd"  fill="url(#linear_fill_F856B9F4-B12D-4756-A3F9-3CD14FD8CC60)" >
</path>
<path d="M815.333 527.079L813.794 528C812.017 524.045 810.802 519.854 810.198 515.562C809.077 507.6 810.454 500.339 814.077 495.141C817.204 490.501 822.321 487.599 827.908 487.289C836.337 486.669 845.645 491.031 853.335 499.238C854.405 500.371 855.396 501.541 856.336 502.74L854.805 503.661C853.935 502.548 853.056 501.452 852.056 500.449C845.264 493.2 836.928 489.001 829.447 489.001L828.005 489.001C822.977 489.323 818.39 491.965 815.585 496.152C812.868 500.347 811.496 505.272 811.644 510.27C811.654 511.941 811.77 513.613 812.007 515.268C812.556 519.345 813.677 523.32 815.333 527.079ZM846.946 554.12C839.116 554.12 830.735 550.008 823.636 542.66L825.184 541.661C832.257 548.849 840.866 552.789 848.417 552.25C853.469 551.962 858.101 549.334 860.934 545.139C865.617 538.41 866.017 528.43 862.814 518.599L864.357 517.67C867.845 528.138 867.436 538.891 862.396 546.199C859.253 550.832 854.132 553.737 848.546 554.062C848.004 554.12 847.475 554.12 846.946 554.12Z" fill-rule="evenodd"  fill="url(#linear_fill_74A1F3B0-F96E-46BA-B4D5-4C96DB92EE61)" >
</path>
<path d="M829.726 515.271C828.693 516.938 828.318 518.931 828.675 520.859C828.943 522.697 829.589 524.458 830.576 526.03C831.063 526.81 831.625 527.541 832.256 528.21C835.906 532.121 840.696 532.64 842.946 529.399C845.196 526.161 844.076 520.399 840.415 516.459C836.755 512.52 832.006 512.001 829.726 515.271Z"   fill="url(#linear_fill_00AF49C6-2E47-41C9-945C-486A494BE8D1)" >
</path>
<path d="M838.265 514.93C837.691 515.865 837.481 516.98 837.676 518.06C837.912 519.606 838.609 521.046 839.675 522.19C841.725 524.38 844.415 524.669 845.675 522.85C846.935 521.03 846.306 517.78 844.256 515.59C842.206 513.4 839.536 513.11 838.265 514.93Z"   fill="url(#linear_fill_19050A4A-4023-4213-805A-A53DC8C150DA)" >
</path>
<path d="M756.006 515.001C757.137 520.759 756.327 526.002 753.737 529.71C751.701 532.722 748.367 534.602 744.736 534.788C744.404 534.801 744.066 534.81 743.716 534.81C738.526 534.81 732.957 532.02 728.287 527.028C726.818 525.46 725.506 523.749 724.376 521.92C722.059 518.242 720.542 514.121 719.915 509.819C719.197 504.659 720.085 499.962 722.427 496.591C724.446 493.597 727.749 491.721 731.355 491.522C736.847 491.119 742.846 493.948 747.826 499.269C751.966 503.649 754.798 509.095 756.006 515.001ZM744.675 533.8C739.575 534.171 733.725 531.381 729.025 526.378C727.604 524.839 726.336 523.163 725.235 521.38C722.997 517.822 721.531 513.839 720.927 509.678C720.269 504.787 721.061 500.359 723.243 497.211L723.265 497.23C725.113 494.489 728.135 492.772 731.436 492.59C736.536 492.219 742.386 495.009 747.086 500.012C755.316 508.811 757.914 521.879 752.856 529.16C751.005 531.901 747.979 533.618 744.675 533.8ZM723.243 497.211L722.845 496.879L723.265 497.18C723.258 497.191 723.25 497.201 723.243 497.211Z" fill-rule="evenodd"  fill="url(#linear_fill_DF6C99D5-B2D7-4E95-B503-CB8D18B11E3D)" >
</path>
<path d="M744.996 503.34C745.485 503.869 745.955 504.419 746.396 504.979L745.675 505.409C745.273 504.888 744.843 504.387 744.385 503.909C741.215 500.55 737.307 498.55 733.796 498.55C733.575 498.51 733.355 498.51 733.145 498.571C730.781 498.703 728.615 499.929 727.285 501.89C726.008 503.856 725.364 506.166 725.436 508.51C725.438 509.299 725.495 510.089 725.606 510.87C725.87 512.775 726.403 514.634 727.185 516.39L726.466 516.82C725.63 514.967 725.065 513.004 724.785 510.99C724.176 507.685 724.825 504.27 726.606 501.42C728.071 499.247 730.468 497.887 733.086 497.74C736.997 497.449 741.396 499.499 744.996 503.34ZM742.746 529.01L741.996 529.01C738.326 529.01 734.406 527.09 731.076 523.64L731.805 523.199C735.115 526.61 739.146 528.45 742.685 528.2C745.052 528.069 747.222 526.836 748.546 524.87C750.746 521.709 750.935 517.04 749.436 512.441L750.155 512C751.785 516.86 751.596 521.9 749.237 525.331C747.766 527.503 745.365 528.864 742.746 529.01Z" fill-rule="evenodd"  fill="url(#linear_fill_809B6F2B-4D9E-4EB4-9E6C-D892F65AF456)" >
</path>
<path d="M733.926 510.83C733.441 511.612 733.266 512.546 733.436 513.45C733.56 514.31 733.863 515.134 734.326 515.87C734.556 516.228 734.82 516.563 735.116 516.87C736.825 518.7 739.065 518.94 740.116 517.42C741.165 515.9 740.645 513.19 738.925 511.36C737.206 509.53 735.006 509.31 733.926 510.83Z"   fill="url(#linear_fill_D08CB919-87C7-4366-9066-3B544ABF589E)" >
</path>
<path d="M737.935 510.67C737.661 511.108 737.561 511.632 737.656 512.14C737.723 512.624 737.894 513.088 738.156 513.5C738.284 513.706 738.431 513.9 738.596 514.08C739.596 515.08 740.816 515.24 741.405 514.39C741.947 513.233 741.68 511.86 740.746 510.99C739.785 510 738.526 509.82 737.935 510.67Z"   fill="url(#linear_fill_1648BF36-89EF-4FE5-B80A-759784AAF040)" >
</path>
<path d="M702.566 485.23C703.276 488.839 702.765 492.121 701.145 494.46C699.873 496.342 697.795 497.522 695.526 497.65C695.315 497.669 695.096 497.68 694.876 497.68C691.616 497.68 688.125 495.92 685.196 492.79C684.271 491.806 683.447 490.729 682.734 489.581C681.286 487.272 680.333 484.686 679.935 481.991C679.41 479.122 679.972 476.163 681.515 473.691C682.785 471.812 684.861 470.635 687.126 470.509C690.566 470.251 694.334 472.03 697.455 475.369C700.042 478.119 701.812 481.532 702.566 485.23ZM685.656 492.35C684.769 491.393 683.976 490.357 683.286 489.25C681.876 487.017 680.954 484.514 680.576 481.899C680.072 479.194 680.594 476.395 682.036 474.05C683.2 472.338 685.097 471.262 687.166 471.141C690.365 470.91 693.996 472.651 696.996 475.799C702.165 481.329 703.786 489.53 700.616 494.101C699.453 495.822 697.55 496.9 695.475 497.011C692.276 497.25 688.656 495.5 685.656 492.35Z" fill-rule="evenodd"  fill="url(#linear_fill_7B06B4AC-3FF3-492D-ABB9-D4110A1ABDC2)" >
</path>
<path d="M695.686 477.931C695.994 478.247 696.284 478.581 696.556 478.93L696.105 479.2C695.856 478.87 695.586 478.56 695.305 478.249C693.631 476.281 691.234 475.071 688.656 474.89L688.245 474.92C686.762 475.008 685.401 475.78 684.566 477.01C683.769 478.245 683.365 479.691 683.406 481.16C683.406 481.658 683.438 482.156 683.506 482.65C683.678 483.844 684.014 485.009 684.506 486.11L684.056 486.38C683.526 485.219 683.169 483.985 682.996 482.72C682.617 480.648 683.023 478.51 684.136 476.72C685.06 475.361 686.564 474.507 688.205 474.41C690.686 474.23 693.416 475.51 695.686 477.931ZM694.265 494.04L693.796 494.04C691.154 493.877 688.687 492.664 686.946 490.67L687.396 490.39C689.476 492.5 692.016 493.66 694.226 493.5C695.714 493.419 697.08 492.646 697.916 491.41C699.285 489.431 699.405 486.5 698.466 483.61L698.916 483.33C699.945 486.41 699.826 489.57 698.346 491.73C697.421 493.094 695.912 493.949 694.265 494.04Z" fill-rule="evenodd"  fill="url(#linear_fill_CC5DC92E-FB68-4B83-9914-799035FE4DDF)" >
</path>
<path d="M688.736 482.63C688.43 483.118 688.319 483.704 688.425 484.27C688.504 484.81 688.695 485.328 688.986 485.79C689.125 486.02 689.29 486.235 689.475 486.43C690.555 487.58 691.956 487.74 692.626 486.78C693.295 485.82 692.956 484.12 691.875 482.98C690.796 481.84 689.396 481.67 688.736 482.63Z"   fill="url(#linear_fill_8F91EB0D-29E5-4204-96CF-E28C0CF5E1EE)" >
</path>
<path d="M691.246 482.53C691.075 482.804 691.014 483.133 691.076 483.45C691.119 483.752 691.224 484.041 691.385 484.3C691.464 484.431 691.558 484.552 691.666 484.66C692.266 485.31 693.056 485.39 693.426 484.86C693.765 484.133 693.6 483.27 693.016 482.72C692.406 482.08 691.616 482 691.246 482.53Z"   fill="url(#linear_fill_130C86C9-73B1-4446-AF83-AB9A5D4247F5)" >
</path>
<path d="M274.516 631.872L248.112 616.63L195.036 646.958L221.709 662.36L274.516 631.872Z"   fill="url(#linear_fill_CCE9786D-1B59-4ED5-9D0E-70C85EFBFDBC)" >
</path>
<path d="M292.13 642.03L319.916 658.083L230.503 708.09L204.096 692.85L292.13 642.03Z"   fill="url(#linear_fill_0813ADD6-FB0B-4DE5-9317-FF72C739945E)" >
</path>
<path d="M230.506 606.461L195.037 626.64L168.886 611.54L204.108 591.22L230.506 606.461Z"   fill="url(#linear_fill_9C8D6981-233A-4A81-B003-9B47D6197428)" >
</path>
<path d="M518.266 234.239L421.272 290.24L360.656 255.238L421.272 220.236L421.272 206.243L445.529 192.25L518.266 234.239Z"   fill="url(#linear_fill_1F0B4DCB-8A83-40E2-8B87-1DCB35F03FFA)" >
</path>
<path d="M421.276 213.28L354.596 251.741L360.657 255.24L421.276 220.241L421.276 213.28Z"   fill="url(#linear_fill_AE1ECE4A-B32D-409C-B31E-FBA75EB5EE8E)" >
</path>
<path d="M518.266 234.24L518.266 240.838L421.276 296.84L421.276 290.242L518.266 234.24Z"   fill="url(#linear_fill_5B68E97A-7C1C-4851-AC94-AF0DF57130B6)" >
</path>
<path d="M421.276 290.238L421.276 296.84L360.656 261.842L360.656 255.24L421.276 290.238Z"   fill="url(#linear_fill_1075C420-3E55-4BF6-A485-5747D1A6C91C)" >
</path>
<path d="M354.596 258.34L354.596 251.74L360.656 255.24L360.656 261.84L354.596 258.34Z"   fill="url(#linear_fill_05FB9E3E-A90B-4AEF-8766-387D6394A180)" >
</path>
<path d="M421.276 220.24L457.256 199.021L445.526 192.25L421.276 206.239L421.276 220.24Z"   fill="url(#linear_fill_D7D0EEC6-DB39-4E75-B3C5-7AFB16F95D92)" >
</path>
<path d="M430.616 209.34C430.27 209.342 429.968 209.11 429.879 208.776C429.789 208.443 429.935 208.091 430.236 207.92L441.856 201.21C442.091 201.074 442.382 201.075 442.617 201.211C442.853 201.347 442.997 201.599 442.997 201.871C442.997 202.143 442.851 202.394 442.616 202.53L431.005 209.24C430.887 209.308 430.753 209.343 430.616 209.34Z"   fill="url(#linear_fill_3DB839EB-1FD8-4E06-86C7-5C88A4632212)" >
</path>
<path d="M771.311 334.478C770.579 336.289 769.644 338.008 768.529 339.611C762.604 348.131 751.07 354.88 736.686 358.199C730.074 359.7 723.315 360.446 716.534 360.43C699.537 360.43 684.364 355.908 674.035 348.77C668.201 344.768 663.92 339.862 661.78 334.478C660.755 331.965 660.226 329.273 660.226 326.562C660.226 324.585 660.507 322.624 661.07 320.73C665.666 336.642 688.746 348.731 716.534 348.731C744.323 348.731 767.425 336.63 772.021 320.73C772.584 322.624 772.866 324.585 772.866 326.562C772.866 329.273 772.336 331.965 771.311 334.478Z"   fill="url(#linear_fill_9D296F0B-ED21-4A87-A441-2D802998DBB3)" >
</path>
<path d="M660.226 314.892L660.226 299.07C660.226 301.781 660.755 304.468 661.78 306.981C662.614 309.062 663.729 311.023 665.08 312.821C673.844 324.68 693.59 332.928 716.534 332.928C739.49 332.928 759.259 324.68 768.022 312.821C769.362 311.018 770.466 309.057 771.311 306.981C772.336 304.468 772.866 301.781 772.866 299.07L772.866 314.892C772.866 316.868 772.584 318.835 772.021 320.732C767.425 336.638 744.323 348.73 716.534 348.73C688.746 348.73 665.666 336.628 661.07 320.732C660.507 318.835 660.226 316.868 660.226 314.892Z"   fill="#335089" >
</path>
<path d="M661.78 307C660.755 304.487 660.226 301.799 660.226 299.09C660.338 293.49 662.456 288.113 666.173 283.928C675.421 272.842 694.502 265.23 716.534 265.23C730.952 265.23 744.12 268.487 754.077 273.851C765.6 280 772.866 289 772.866 299.07C772.866 301.792 772.336 304.481 771.311 307C770.579 308.815 769.644 310.542 768.529 312.14C762.604 320.652 751.058 327.411 736.686 330.722C730.074 332.219 723.315 332.971 716.534 332.95C699.537 332.95 684.364 328.44 674.035 321.302C668.201 317.3 663.92 312.377 661.78 307Z"   fill="url(#linear_fill_522D0802-FF39-426D-93FD-1699D50AABD3)" >
</path>
<path d="M754.076 273.828L715.209 296.878L674.005 321.28C668.166 317.282 663.885 312.359 661.745 306.982C660.721 304.465 660.196 301.784 660.196 299.071C660.308 293.469 662.421 288.092 666.148 283.909C675.395 272.819 694.471 265.21 716.505 265.21C731.009 265.21 744.115 268.468 754.076 273.828Z"   fill="url(#linear_fill_99B06545-4A0C-4548-968F-382F1E11D149)" >
</path>
<path d="M772.866 299.069C772.866 301.789 772.335 304.482 771.303 306.999C770.582 308.815 769.648 310.539 768.524 312.14L715.206 296.881L754.074 273.83C765.606 280.002 772.866 289.001 772.866 299.069Z"   fill="url(#linear_fill_355D7299-50CA-4F97-AC6B-961D9AD99B26)" >
</path>
<path d="M754.076 273.831L715.202 296.88L666.206 283.88C675.458 272.791 694.535 265.18 716.564 265.18C731.01 265.208 744.12 268.47 754.076 273.831Z"   fill="url(#linear_fill_38D92907-0D19-4206-BDD3-347614074673)" >
</path>
<path d="M768.526 312.119C762.607 320.628 751.058 327.389 736.688 330.7L715.206 296.88L768.526 312.119Z"   fill="#4268A5" >
</path>
<path d="M872.29 121.926C875.933 124.035 878.181 127.919 878.181 132.137L878.181 279.322L876.495 283.873C875.787 284.678 873.914 285.76 873.914 285.76L879.533 283.873C879.991 283.762 880.907 283.401 880.907 283.401C882.114 282.874 883.155 282.014 883.904 280.932C884.653 279.738 885.007 276.991 885.007 276.991L885.007 129.862C885.007 125.644 882.759 121.759 879.117 119.65L687.615 9.01182C686.179 8.15157 684.431 8.04058 682.891 8.65107L676.876 10.7323C677.979 10.4548 679.144 10.5936 680.185 11.0375L682.849 12.536L872.29 121.926Z"   fill="url(#linear_fill_550B8FB1-88FE-472B-BB9F-39E6A2544D84)" >
</path>
<path d="M672.616 166.442C672.616 170.357 674.712 173.969 678.103 175.927L867.664 285.372C869.555 286.502 871.856 286.64 873.891 285.758L876.46 283.883C877.55 282.614 878.146 280.987 878.146 279.333L878.146 132.138C878.146 127.919 875.905 124.031 872.247 121.936L682.851 12.5189L680.755 11.3331C679.131 10.5886 677.98 10.4783 676.87 10.7265C673.849 11.9674 672.616 13.87 672.616 15.9933L672.616 166.442Z"   fill="#F3F6FF" >
</path>
<path d="M847.346 83.7835L826.795 71.9301L826.736 238.057L847.296 249.91L847.346 83.7835Z"   fill="url(#linear_fill_DDC79217-9B4B-489F-9BAD-3C0CC3D7C6BD)" >
</path>
<path d="M806.226 11.492L785.666 0L785.635 214.343L806.195 226.22L806.226 11.492Z"   fill="#4268A5" >
</path>
<path d="M765.106 107.488L744.547 95.62L744.516 190.583L765.075 202.44L765.106 107.488Z"   fill="url(#linear_fill_95696815-2A50-438C-9F66-C269CCEAD955)" >
</path>
<path d="M724.006 119.379L703.446 107.51L703.426 166.881L723.975 178.75L724.006 119.379Z"   fill="url(#linear_fill_F2E0BC7F-4258-4CF7-BE6E-657D348A6726)" >
</path>
<path d="M333.35 72.7573L330.461 73.3381L122.208 193.573C118.4 195.767 116.07 199.832 116.07 204.242L116.07 280.233C116.07 280.233 116.54 283.029 117.436 284.104C117.929 284.728 119.229 285.61 119.229 285.61L115.174 283.61L114.771 283.438C114.771 283.438 111.523 280.297 111.545 278.06L111.545 202.005C111.545 197.595 113.897 193.552 117.705 191.358L325.51 71.3592C325.51 71.3592 329.408 70.2408 331.245 71.1441L335.546 73.252L333.35 72.7573Z"   fill="url(#linear_fill_864BDE9D-6E1B-42AB-BF97-33E07436E0F7)" >
</path>
<path d="M122.254 193.509L329.998 73.5784C332.051 72.5745 335.532 73.258 335.532 73.258L336.09 73.557C338.053 74.6036 339.258 76.6541 339.236 78.8968L339.236 152.671C339.236 158.416 336.201 163.713 331.225 166.597L125.266 285.502C123.57 286.485 119.755 285.823 119.755 285.823L119.242 285.566L118.461 285.032C116.564 282.939 116.073 281.572 116.095 280.163L116.095 204.167C116.095 199.767 118.438 195.688 122.254 193.509Z"   fill="#F3F6FF" >
</path>
<path d="M339.236 78.891L339.236 152.685C339.236 158.409 336.189 163.707 331.244 166.601L125.265 285.505C123.587 286.484 119.768 285.825 119.768 285.825L119.238 285.569L118.466 285.037C181.01 193.689 336.101 73.55 336.101 73.55C336.101 73.55 339.258 76.678 339.236 78.891Z"   fill="url(#linear_fill_383D895A-7DC0-44A0-A3A7-28B9492650DE)" >
</path>
<path d="M299.364 164.107L268.606 146.357L217.867 210.757L177.494 187.448L137.66 256.43L135.036 254.924L176.376 183.315L217.135 206.832L267.854 142.432L297.945 159.797L317.776 114.076L348.62 96.23L350.126 98.8412L320.142 116.191L299.364 164.107Z"   fill="url(#linear_fill_43139652-49DB-49F5-BAA3-2FA3495B7C78)" >
</path>
<path d="M347.866 86.65L347.866 110.08L358.016 92.5005L347.866 86.65Z"   fill="url(#linear_fill_6ED4C836-6405-46E1-9953-814B88DF626A)" >
</path>
<ellipse cx="178.86892578125" cy="195.9114990234375" transform="rotate(-87.27000004599545 172.39892578125 191.6614990234375)" rx="6.47" ry="4.25"   fill="url(#linear_fill_03FD9AFB-5911-468E-BFDF-D790865F4F5B)" >
</ellipse>
<path d="M221.756 208.93C221.586 212.49 219.546 215.29 217.206 215.181C214.866 215.069 213.096 212.09 213.265 208.52C213.436 204.95 215.475 202.16 217.815 202.269C220.155 202.381 221.925 205.36 221.756 208.93Z"   fill="url(#linear_fill_F01CA552-AEEE-41C9-97E4-865E14225030)" >
</path>
<path d="M272.476 145.19C272.305 148.75 270.266 151.55 267.915 151.441C265.566 151.329 263.806 148.35 263.975 144.781C264.146 141.21 266.185 138.41 268.536 138.53C270.886 138.65 272.645 141.62 272.476 145.19Z"   fill="url(#linear_fill_945952D8-1DDF-4DB3-9F4D-769FDD2DC8C5)" >
</path>
<path d="M302.896 162.15C302.726 165.721 300.686 168.52 298.346 168.41C296.006 168.299 294.236 165.309 294.405 161.75C294.576 158.19 296.615 155.38 298.955 155.489C301.295 155.601 303.065 158.58 302.896 162.15Z"   fill="url(#linear_fill_4F9D0E2D-A08B-4C24-A29D-07F54C4AB098)" >
</path>
<path d="M639.266 375.41C639.266 375.41 636.666 383.74 641.355 383.3C646.046 382.86 656.015 377.49 655.585 375.41C655.156 373.33 644.536 375.18 644.536 375.18L641.176 373.93L639.266 375.41Z"   fill="url(#linear_fill_2940A0EF-D913-4C20-8175-C9341C475DAC)" >
</path>
<path d="M627.246 372.54C627.246 372.54 624.665 380.79 629.305 380.36C633.945 379.93 643.826 374.6 643.396 372.54C642.965 370.48 632.455 372.31 632.455 372.31L629.136 371.08L627.246 372.54Z"   fill="url(#linear_fill_2E36DBA0-9160-444D-9F42-63BD003C88AE)" >
</path>
<path d="M633.296 324.003C633.296 324.003 635.905 332.95 635.606 338.292C635.306 343.627 639.186 376.552 639.186 376.552C639.186 376.552 639.626 377.298 641.186 377.197C642.081 377.168 642.948 376.872 643.676 376.351C643.676 376.351 644.176 323.961 642.875 320.349C641.576 316.743 633.266 318.348 633.266 318.348L633.296 324.003Z"   fill="url(#linear_fill_797CDE8C-0090-418D-8285-11880B8A6C07)" >
</path>
<path d="M621.606 321.997C621.606 321.997 624.185 330.868 623.886 336.162C623.585 341.45 627.436 374.049 627.436 374.049C627.436 374.049 627.875 374.787 629.436 374.688C630.32 374.658 631.177 374.365 631.895 373.849C631.895 373.849 632.395 321.968 631.105 318.409C629.815 314.85 621.596 316.41 621.596 316.41L621.606 321.997Z"   fill="url(#linear_fill_2AE71597-F86C-4224-840D-4F242F3E6AB6)" >
</path>
<path d="M633.087 292.821C638.567 292.419 643.475 292.12 643.917 292.281C644.917 292.641 646.746 294.989 646.746 294.989L649.686 323.831C649.686 323.831 645.956 322.12 643.137 322.21C636.946 322.39 637.615 324.05 631.056 324.381C624.495 324.709 617.956 320.22 617.956 320.22C617.956 319.38 616.316 316.531 617.875 310.941C619.327 305.75 618.687 303.84 618.024 301.27C619.528 299.591 621.834 298.874 624.027 299.398C629.306 300.511 638.726 297.7 638.726 297.7C635.029 298.472 631.209 298.446 627.526 297.62C626.285 297.33 625.164 297.041 624.157 296.739C621.825 296.131 619.58 295.221 617.485 294.031L621.617 293.699C624.696 293.449 629.046 293.111 633.087 292.821Z"   fill="url(#linear_fill_0CCA2CC4-7005-4BB4-A3E6-C4F8DE7A7943)" >
</path>
<path d="M618.435 245.09C618.435 245.09 610.876 259.011 611.326 264.749C611.776 270.489 626.446 273.05 626.446 273.05L625.775 258.231L618.435 245.09Z"   fill="url(#linear_fill_22598551-3623-4C87-8BFE-328C520F4E1E)" >
</path>
<path d="M639.526 222.67C639.526 222.67 642.236 226.67 641.576 228.13C641.256 228.84 644.196 232.8 642.256 234.13C639.615 235.97 635.556 235.72 631.255 232.3C626.956 228.881 629.666 222.66 629.666 222.66L634.085 218.99L639.526 222.67Z"   fill="url(#linear_fill_83808D6B-88C9-44CB-879A-CBBE5F2A1053)" >
</path>
<path d="M661.146 238.52C661.146 238.52 665.255 227.3 666.006 228.001C666.756 228.7 665.135 232.291 666.405 233.77C667.675 235.25 669.405 235.92 667.706 238C666.006 240.08 661.536 242.57 661.536 242.57L661.146 238.52Z"   fill="url(#linear_fill_DFB1EB6C-0E56-45E8-88E4-3623FD100E59)" >
</path>
<path d="M648.005 294.333C648.005 294.333 647.574 294.588 646.804 294.983C644.267 296.222 641.575 297.133 638.806 297.692C635.112 298.463 631.291 298.439 627.607 297.613C626.367 297.321 625.244 297.03 624.237 296.732C621.903 296.118 619.662 295.207 617.565 294.017C615.846 293.021 615.566 292.268 615.566 292.268C615.566 292.268 615.658 291.381 615.817 289.96C616.306 285.502 617.435 275.76 618.345 271.539C619.124 267.901 618.224 263.151 617.585 258.129C617.188 255.456 617.013 252.76 617.057 250.063C617.376 240.06 629.418 239.671 629.418 239.671C629.418 239.671 638.094 239.21 642.994 245.769C646.305 250.191 649.317 253.173 651.254 253.932C652.198 254.308 652.876 254.163 653.253 253.422C653.486 252.93 653.897 251.83 654.425 250.421C656.425 245.21 660.167 235.821 663.096 237.782C666.747 240.248 658.347 269.65 652.115 266.468C646.296 263.467 644.117 259.471 643.827 259.009C643.996 259.422 645.124 262.192 644.524 263.571C644.306 264.014 644.044 264.439 643.744 264.84C642.776 266.079 642.548 267.342 642.926 268.49C643.357 269.948 644.175 271.43 645.018 273.95C645.734 276.173 646.276 278.451 646.635 280.759C647.366 285.253 647.826 289.784 648.005 294.333Z"   fill="url(#linear_fill_8415A960-BC5C-4A06-8468-512CB56379EB)" >
</path>
<path d="M636.346 285.25C637.922 285.008 639.471 284.606 640.966 284.05C642.087 283.444 643.101 282.657 643.966 281.72C643.577 283.236 642.897 284.663 641.965 285.92C641.505 286.524 640.952 287.05 640.326 287.48C640.326 287.48 641.016 285.1 639.705 285.28C638.587 285.38 637.462 285.37 636.346 285.25Z"   fill="url(#linear_fill_AE752945-BFBC-4CA1-B5B7-A23F71C22E89)" >
</path>
<path d="M645.006 274C644.835 273.81 641.826 270.49 639.876 269.95C637.926 269.41 637.975 269.24 640.135 268.16C641.473 267.421 642.63 266.398 643.525 265.16C642.767 266.101 642.537 267.362 642.916 268.51C643.355 270 644.176 271.43 645.006 274Z" fill-rule="evenodd"  fill="url(#linear_fill_21A42169-1D2F-417A-BF22-7E4BABB6CC41)" >
</path>
<path d="M621.246 273.001C623.105 274.321 631.206 276.24 626.435 280.25C623.705 282.559 620.926 285.249 619.686 287.681C618.755 289.472 618.686 291.101 620.116 292.27C620.654 292.71 621.165 293.185 621.645 293.691C622.564 294.625 623.414 295.628 624.185 296.69C621.854 296.08 619.611 295.169 617.516 293.98C615.796 292.98 615.516 292.232 615.516 292.232C615.516 292.232 615.606 291.34 615.766 289.92C616.256 285.461 617.386 275.719 618.295 271.5C619.075 267.86 618.176 263.112 617.536 258.09C617.536 258.09 624.456 262.869 622.595 265.088C620.736 267.311 619.385 271.681 621.246 273.001Z"   fill="url(#linear_fill_06787771-3FCA-411F-B7D3-E1F927A6F31D)" >
</path>
<path d="M654.226 255C654.376 256.37 651.226 254 651.226 254C652.165 254.38 652.845 254.23 653.226 253.49C653.456 253 653.866 251.9 654.396 250.49C654.07 251.971 654.012 253.499 654.226 255Z"   fill="url(#linear_fill_1B137643-A624-440A-92F6-1A11119D5990)" >
</path>
<path d="M638.766 297.7C638.766 297.7 629.345 300.51 624.065 299.4C621.873 298.872 619.57 299.591 618.065 301.27L617.916 300.67C617.493 298.48 617.372 296.243 617.555 294.02C619.651 295.21 621.895 296.121 624.225 296.73C625.225 297.03 626.356 297.32 627.597 297.61C631.281 298.436 635.1 298.463 638.766 297.7Z"   fill="url(#linear_fill_225BF097-C796-45C4-93FF-11661E69D555)" >
</path>
<path d="M621.775 233.761C620.285 232.421 620.256 228.389 621.775 224.118C623.776 218.59 626.966 214.89 632.864 215.779C638.765 216.671 639.525 222.67 639.525 222.67C639.525 222.67 635.764 223.409 637.466 228.669C639.166 233.929 640.875 236.49 638.276 238.349C635.675 240.208 636.936 241.702 637.645 243.411C639.247 247.29 639.856 253.599 631.285 252.931C622.715 252.259 615.335 247.719 617.776 241.41C619.136 237.89 624.626 236.341 621.775 233.761Z"   fill="#012860" >
</path>
<path d="M307.896 273.62C307.896 273.62 304.006 290.927 301.006 295.071C298.875 298.019 297.415 316.162 296.755 326.411L296.216 327.22L296.216 326.019C297.215 310.722 298.625 295.451 300.006 292.348C303.005 285.76 305.006 277.538 304.456 274.719C304.369 274.322 304.195 273.947 303.945 273.62L307.896 273.62Z"   fill="url(#linear_fill_EA7B8971-B145-4630-8535-DDAAA301D118)" >
</path>
<path d="M294.196 360.5C295.05 362.097 295.441 363.902 295.325 365.71C295.036 368.44 294.205 369.88 288.187 368.59C282.166 367.3 272.687 366.88 272.575 364.59C272.466 362.3 286.857 360.24 286.857 360.24L294.196 360.5Z"   fill="url(#linear_fill_D451B8B1-7544-4771-8CD7-74A1FBA2A7B4)" >
</path>
<path d="M304.105 353.74C304.955 355.339 305.342 357.143 305.226 358.95C304.936 361.68 304.105 363.12 298.085 361.83C292.066 360.54 282.587 360.12 282.475 357.83C282.366 355.54 296.755 353.48 296.755 353.48L304.105 353.74Z"   fill="url(#linear_fill_56B31A6F-D463-4304-87B6-B5E57B0C2160)" >
</path>
<path d="M296.375 333.481L296.246 327.24L296.785 326.431C297.445 316.178 298.907 298.038 301.036 295.09C304.037 290.951 307.946 273.639 307.946 273.639L303.946 273.639C304.195 273.966 304.369 274.339 304.456 274.739C304.955 277.56 302.956 285.738 300.005 292.37C298.626 295.472 297.255 310.738 296.215 326.039L295.146 275.604L295.146 273.893L295.476 273.639L297.476 272.138L298.916 271.064L299.036 270.973L308.265 264.05C308.265 264.05 313.896 265.178 314.405 267.98C314.915 270.782 312.815 278.997 309.866 285.583C308.385 288.877 306.945 305.971 305.866 322.209C304.785 338.448 304.096 353.741 304.096 353.741C304.096 353.741 302.936 355.36 300.096 354.96C297.255 354.56 296.805 353.523 296.805 353.523L296.596 343.888L296.375 333.481Z"   fill="url(#linear_fill_8354AC0A-FC31-454E-A46D-5B040EE029F3)" >
</path>
<path d="M294.236 360.504C294.236 360.504 293.075 362.132 290.186 361.722C287.297 361.313 286.896 360.276 286.896 360.276L286.437 338.838L286.255 330.106L286.006 321.001L285.345 290.331L285.146 280.662L294.476 273.659L298.256 270.83C298.256 270.83 298.565 270.894 298.915 270.994C300.588 271.376 302.152 272.14 303.485 273.222C303.626 273.359 303.756 273.504 303.876 273.659C304.125 273.986 304.299 274.359 304.386 274.759C304.915 277.543 302.915 285.756 300.005 292.35C298.625 295.452 297.255 310.723 296.215 326.022L296.126 327.386C296.006 329.187 295.875 330.961 295.765 332.717C295.546 336.373 295.336 339.911 295.146 343.167C294.576 353.1 294.236 360.504 294.236 360.504Z"   fill="url(#linear_fill_737CD2D0-12BE-4BE5-9196-67CDF3D11E22)" >
</path>
<path d="M256.216 207.921C255.033 207.536 254.013 206.769 253.316 205.74C250.846 202.231 254.655 202.36 251.126 199.09C249.885 197.93 251.406 196.45 253.946 195.65C256.486 194.85 260.076 200.91 259.546 205.65C259.015 210.39 256.216 207.921 256.216 207.921Z"   fill="url(#linear_fill_9ED83BDB-032C-440A-BCFB-675A8AA0CD33)" >
</path>
<path d="M288.886 188.52C287.76 188.186 286.78 187.482 286.106 186.52C283.686 183.32 287.256 183.32 283.856 180.369C282.655 179.37 284.035 177.899 286.386 177.07C288.736 176.24 292.275 181.8 291.935 186.29C291.595 190.781 288.886 188.52 288.886 188.52Z"   fill="url(#linear_fill_8F52CE35-E46B-4E20-B91D-1EC647F32DAF)" >
</path>
<path d="M309.896 224.141C309.896 224.141 296.896 184.661 289.666 186.741C283.226 188.591 299.246 224.89 299.246 224.89L309.896 224.141Z"   fill="url(#linear_fill_0148EEC0-8512-4427-BB43-57740AD7E8C0)" >
</path>
<path d="M301.006 216.76L301.526 223.34C301.526 223.34 298.525 226.34 298.376 226.4C298.226 226.461 292.905 225.86 292.905 225.86C292.905 225.86 292.905 218.69 292.585 217.67L292.246 216.67L300.056 214.67L301.006 216.76Z"   fill="url(#linear_fill_70A2CF9F-B249-4046-AC91-572ED5B132CA)" >
</path>
<path d="M289.005 203.6C289.005 203.6 285.445 211.461 286.396 211.951C287.346 212.441 285.965 218.601 289.826 218.47C294.255 218.489 298.321 216.024 300.355 212.091C302.845 207.431 296.495 201.09 296.495 201.09L291.776 199.84L289.005 203.6Z"   fill="url(#linear_fill_59475524-F9CF-4351-9E33-DF179E5DAF40)" >
</path>
<path d="M295.735 194.671C294.526 193.98 296.336 190.429 293.735 189.321C292.366 188.691 289.236 192.579 289.236 192.579C289.236 192.579 283.806 199.841 289.036 203.579C294.266 207.319 293.765 208.86 292.955 210.389C292.475 211.202 292.366 212.183 292.655 213.079C292.655 213.079 297.135 207.69 297.656 210.99C298.175 214.291 292.985 215.191 296.156 216.65C299.324 218.11 306.476 216.129 307.775 209.559C309.075 202.991 304.655 200.559 304.655 200.559C304.655 200.559 304.995 196.56 302.145 195.131C299.295 193.699 296.946 195.359 295.735 194.671Z"   fill="#012860" >
</path>
<path d="M306.008 220.442L306.624 220.672C311.485 222.543 311.974 228.038 311.213 235.901L311.135 236.613C310.283 244.862 312.615 250.357 314.438 257.032C315.61 261.828 316.286 266.744 316.456 271.681C315.713 272.513 314.855 273.24 313.913 273.849C313.418 274.131 312.904 274.384 312.373 274.599C311.648 274.904 311.093 275.082 311.093 275.082L309.806 269.818L309.208 275.616C309.208 275.616 307.366 276.938 299.117 278.891C293.567 280.019 287.853 280.079 282.285 279.062C282.285 279.062 281.283 275.609 282.164 269.714C283.046 263.811 284.067 263.707 284.876 252.057C285.685 240.407 275.636 234.059 266.976 224.6C258.315 215.14 253.248 209.349 257.723 205.8C260.393 203.691 271.348 214.569 279.616 220.754L279.724 220.828C283.517 223.649 286.724 225.461 288.318 224.548C290.166 223.471 291.827 222.551 293.186 221.749C297.081 219.514 301.738 219.039 306.008 220.442Z"   fill="url(#linear_fill_4AE02DE7-BB73-451C-94F4-AE54D8DC8A6A)" >
</path>
<path d="M288.316 224.549C286.715 225.869 285.316 230.55 283.095 232.09C280.876 233.63 283.095 229.74 283.526 226.95C283.936 224.44 280.415 221.41 279.726 220.83C283.516 223.65 286.736 225.46 288.316 224.549Z"   fill="url(#linear_fill_32175705-5CAF-4540-A605-3911474D9294)" >
</path>
<path d="M316.456 271.681C315.711 272.514 314.856 273.245 313.916 273.849C313.418 274.132 312.904 274.383 312.376 274.6C311.892 273.497 311.754 272.274 311.976 271.089C312.636 265.588 307.416 267.841 303.506 266.03C299.595 264.222 309.036 258.4 309.796 254.3C310.556 250.201 308.745 246.748 304.485 244.998C300.225 243.249 311.206 235.89 311.206 235.89C311.206 236.118 311.206 236.358 311.125 236.598C310.275 244.851 312.605 250.348 314.426 257.022C315.604 261.826 316.283 266.738 316.456 271.681Z"   fill="url(#linear_fill_079B1578-7A03-4979-ADF5-FBAFF93CD777)" >
</path>
<path d="M56.9156 294.2C56.9156 294.2 58.4256 423.332 59.1157 544.65C59.1157 544.65 60.6756 349.224 61.3256 294.2L56.9156 294.2Z"   fill="url(#linear_fill_B2788534-D4BA-4B3F-966D-C00258069EA4)" >
</path>
<circle cx="56.687431640625" cy="311.07830078125" transform="rotate(-80.66000036452074 40.367431640625 294.75830078125)" r="16.32"   fill="url(#linear_fill_77A98C99-0A80-4469-8C70-5284D833657A)" >
</circle>
<path d="M566.756 138.07C566.756 138.07 568.266 211.146 568.956 279.8C568.956 279.8 570.516 169.208 571.166 138.07L566.756 138.07Z"   fill="url(#linear_fill_D8E8883E-8C20-484B-A21F-7B332FD7C9E1)" >
</path>
<circle cx="566.58513671875" cy="154.9771044921875" transform="rotate(-80.78000024787423 550.26513671875 138.6571044921875)" r="16.319999999999997"   fill="url(#linear_fill_1CC57E56-C605-43FB-920C-00EC30FC4F12)" >
</circle>
<path d="M637.506 551.21C637.506 551.21 639.026 618.212 639.715 681.21C639.715 681.21 641.266 579.81 641.916 551.21L637.506 551.21Z"   fill="url(#linear_fill_F2EECC6F-D658-434F-BEE8-E96EC0263696)" >
</path>
<circle cx="632.957451171875" cy="554.60515625" transform="rotate(-45 616.637451171875 538.28515625)" r="16.32"   fill="url(#linear_fill_FA1AF856-A160-45F7-937B-CD61EC75EDBE)" >
</circle>
<path d="M893.326 341.89C893.326 341.89 894.836 397.049 895.526 448.89C895.526 448.89 897.086 365.419 897.736 341.89L893.326 341.89Z"   fill="url(#linear_fill_F247D2F1-DB50-4AEF-90EB-E04FB2FE1C21)" >
</path>
<circle cx="895.52556640625" cy="328.9800341796875" r="16.32"   fill="url(#linear_fill_913F7A77-B902-47FA-A9A4-969192A1A20C)" >
</circle>
<defs>
<linearGradient id="linear_fill_ABC4E546-F485-4A50-9951-4BAF5F92F821" x1="0.005615234375" y1="514.949951171875" x2="273.8956298828125" y2="514.949951171875" gradientUnits="userSpaceOnUse">
<stop offset="0" stop-color="#E9EFFF"  />
<stop offset="0.52" stop-color="#F2F6FF"  />
<stop offset="1" stop-color="#FFFFFF"  />
</linearGradient>
<linearGradient id="linear_fill_13DB40CA-F9C1-4024-B17D-E25550AF9C40" x1="314.16552734375" y1="579.340087890625" x2="737.7255859375" y2="579.340087890625" gradientUnits="userSpaceOnUse">
<stop offset="0" stop-color="#E9EFFF"  />
<stop offset="0.52" stop-color="#F2F6FF"  />
<stop offset="1" stop-color="#FFFFFF"  />
</linearGradient>
<linearGradient id="linear_fill_9A4398EE-2D26-49A4-BEAA-660D69898784" x1="574.185546875" y1="355.030029296875" x2="858.905517578125" y2="355.030029296875" gradientUnits="userSpaceOnUse">
<stop offset="0" stop-color="#FFFFFF"  />
<stop offset="0.48" stop-color="#F2F6FF"  />
<stop offset="1" stop-color="#E9EFFF"  />
</linearGradient>
<linearGradient id="linear_fill_E66656B1-39A2-47DE-804B-C64601A50B62" x1="183.29559326171875" y1="292.9000244140625" x2="365.6556396484375" y2="292.9000244140625" gradientUnits="userSpaceOnUse">
<stop offset="0" stop-color="#FFFFFF"  />
<stop offset="0.48" stop-color="#F2F6FF"  />
<stop offset="1" stop-color="#E9EFFF"  />
</linearGradient>
<linearGradient id="linear_fill_93B424FE-95ED-4512-AB48-60E171448D93" x1="370.24560546875" y1="474.739990234375" x2="519.28564453125" y2="474.739990234375" gradientUnits="userSpaceOnUse">
<stop offset="0" stop-color="#F22AFF"  />
<stop offset="1" stop-color="#6C00E9"  />
</linearGradient>
<linearGradient id="linear_fill_3D73DEE6-572F-407F-AC27-FFE9CEF23B83" x1="400.0555419921875" y1="440.320068359375" x2="568.95556640625" y2="440.320068359375" gradientUnits="userSpaceOnUse">
<stop offset="0" stop-color="#FF0007"  />
<stop offset="1" stop-color="#FFAAAC"  />
</linearGradient>
<linearGradient id="linear_fill_6F9320F9-F1A3-405F-ADC8-D0C8D6444F0A" x1="283.5753173828125" y1="520.68994140625" x2="626.7255859375" y2="520.68994140625" gradientUnits="userSpaceOnUse">
<stop offset="0" stop-color="#E9EFFF"  />
<stop offset="0.09" stop-color="#DFEAFF"  />
<stop offset="0.49" stop-color="#B7D2FF"  />
<stop offset="0.81" stop-color="#9DC4FF"  />
<stop offset="1" stop-color="#94BFFF"  />
</linearGradient>
<linearGradient id="linear_fill_B53C3183-25F6-4327-BB29-A720C19AD193" x1="529.215576171875" y1="432.0999755859375" x2="582.6156005859375" y2="432.0999755859375" gradientUnits="userSpaceOnUse">
<stop offset="0" stop-color="#6AAEFF"  />
<stop offset="1" stop-color="#005EFF"  />
</linearGradient>
<linearGradient id="linear_fill_9DBD98E3-C272-4282-A545-73AC73571E93" x1="367.1456298828125" y1="500.52001953125" x2="449.6556396484375" y2="500.52001953125" gradientUnits="userSpaceOnUse">
<stop offset="0" stop-color="#6AAEFF"  />
<stop offset="1" stop-color="#005EFF"  />
</linearGradient>
<linearGradient id="linear_fill_3D034F8E-83E5-4C58-97BD-82E8827AF2F7" x1="327.685546875" y1="441.1500244140625" x2="582.615478515625" y2="441.1500244140625" gradientUnits="userSpaceOnUse">
<stop offset="0" stop-color="#E9EFFF"  />
<stop offset="0.09" stop-color="#DFEAFF"  />
<stop offset="0.49" stop-color="#B7D2FF"  />
<stop offset="0.81" stop-color="#9DC4FF"  />
<stop offset="1" stop-color="#94BFFF"  />
</linearGradient>
<linearGradient id="linear_fill_C6ECF9B7-34FB-4CB0-A5DA-D02F3101C670" x1="436.425537109375" y1="667.8800048828125" x2="466.62548828125" y2="667.8800048828125" gradientUnits="userSpaceOnUse">
<stop offset="0" stop-color="#6AAEFF"  />
<stop offset="1" stop-color="#005EFF"  />
</linearGradient>
<linearGradient id="linear_fill_2F6826F0-A199-4DC5-A7DE-BA71FF3EBB5E" x1="420.0855712890625" y1="702.469970703125" x2="482.9755859375" y2="702.469970703125" gradientUnits="userSpaceOnUse">
<stop offset="0" stop-color="#6AAEFF"  />
<stop offset="1" stop-color="#005EFF"  />
</linearGradient>
<linearGradient id="linear_fill_D67AD8BA-AE6A-414A-AB56-2A32C12535ED" x1="283.57568359375" y1="513.2099609375" x2="420.11572265625" y2="513.2099609375" gradientUnits="userSpaceOnUse">
<stop offset="0" stop-color="#6AAEFF"  />
<stop offset="1" stop-color="#005EFF"  />
</linearGradient>
<linearGradient id="linear_fill_B6BA1064-91BA-44C6-AAD1-A8DA3530328E" x1="482.9755859375" y1="515.070068359375" x2="626.715576171875" y2="515.070068359375" gradientUnits="userSpaceOnUse">
<stop offset="0" stop-color="#6AAEFF"  />
<stop offset="1" stop-color="#005EFF"  />
</linearGradient>
<linearGradient id="linear_fill_AE7ED18B-A29D-459D-90F9-828791976A42" x1="100.05560302734375" y1="496.199951171875" x2="212.69561767578125" y2="496.199951171875" gradientUnits="userSpaceOnUse">
<stop offset="0" stop-color="#E9F2FF"  />
<stop offset="1" stop-color="#E9F1FF"  />
</linearGradient>
<linearGradient id="linear_fill_0E9D6095-1D4C-4903-94DE-26FA7B14A24D" x1="100.05560302734375" y1="454.68994140625" x2="212.69561767578125" y2="454.68994140625" gradientUnits="userSpaceOnUse">
<stop offset="0" stop-color="#E9EFFF"  />
<stop offset="1" stop-color="#D4E3FF"  />
</linearGradient>
<linearGradient id="linear_fill_58EDD8EB-0D88-4585-8711-3EBF955EAC55" x1="81.05560302734375" y1="448.8699951171875" x2="174.90557861328125" y2="448.8699951171875" gradientUnits="userSpaceOnUse">
<stop offset="0" stop-color="#FF0007"  />
<stop offset="1" stop-color="#FFAAAC"  />
</linearGradient>
<linearGradient id="linear_fill_EDB1F041-198F-4324-ACA3-6D97535135FF" x1="155.03564453125" y1="448.5999755859375" x2="212.69561767578125" y2="448.5999755859375" gradientUnits="userSpaceOnUse">
<stop offset="0" stop-color="#E9EFFF"  />
<stop offset="1" stop-color="#D4E3FF"  />
</linearGradient>
<linearGradient id="linear_fill_1B26C6C6-2B9F-412E-B1B1-B242C3670B86" x1="106.005615234375" y1="436.6700439453125" x2="193.9056396484375" y2="436.6700439453125" gradientUnits="userSpaceOnUse">
<stop offset="0" stop-color="#6AAEFF"  />
<stop offset="1" stop-color="#005EFF"  />
</linearGradient>
<linearGradient id="linear_fill_34F31B5A-67A8-478D-A189-C4450BAD651E" x1="155.03564453125" y1="469.4100341796875" x2="208.3555908203125" y2="469.4100341796875" gradientUnits="userSpaceOnUse">
<stop offset="0" stop-color="#F22AFF"  />
<stop offset="1" stop-color="#6C00E9"  />
</linearGradient>
<linearGradient id="linear_fill_564F24FB-2432-4BB1-B71E-E03394ABFBEE" x1="695.525634765625" y1="456.280029296875" x2="740.255615234375" y2="456.280029296875" gradientUnits="userSpaceOnUse">
<stop offset="0" stop-color="#6AAEFF"  />
<stop offset="1" stop-color="#005EFF"  />
</linearGradient>
<linearGradient id="linear_fill_89832C07-920D-4F9F-B7DE-F7474A34B054" x1="695.525634765625" y1="494.989990234375" x2="717.8956298828125" y2="494.989990234375" gradientUnits="userSpaceOnUse">
<stop offset="0" stop-color="#AAC9FF"  />
<stop offset="1" stop-color="#E9F1FF"  />
</linearGradient>
<linearGradient id="linear_fill_F58204D3-5B33-48C5-B4B4-4C347E4EE835" x1="744.685546875" y1="445.010009765625" x2="789.41552734375" y2="445.010009765625" gradientUnits="userSpaceOnUse">
<stop offset="0" stop-color="#F22AFF"  />
<stop offset="1" stop-color="#6C00E9"  />
</linearGradient>
<linearGradient id="linear_fill_5C2D3A01-39F8-491D-8102-FF4B5A80A2F4" x1="744.685546875" y1="503.6300048828125" x2="767.0555419921875" y2="503.6300048828125" gradientUnits="userSpaceOnUse">
<stop offset="0" stop-color="#AAC9FF"  />
<stop offset="1" stop-color="#E9F1FF"  />
</linearGradient>
<linearGradient id="linear_fill_1291D4C3-88B7-411D-A385-EE790F76B8F9" x1="793.8955078125" y1="432.280029296875" x2="838.62548828125" y2="432.280029296875" gradientUnits="userSpaceOnUse">
<stop offset="0" stop-color="#FF0007"  />
<stop offset="1" stop-color="#FFAAAC"  />
</linearGradient>
<linearGradient id="linear_fill_AF8D88A2-3667-4C0A-B31B-E8293B732BC0" x1="793.8955078125" y1="510.81005859375" x2="816.2655029296875" y2="510.81005859375" gradientUnits="userSpaceOnUse">
<stop offset="0" stop-color="#AAC9FF"  />
<stop offset="1" stop-color="#E9F1FF"  />
</linearGradient>
<linearGradient id="linear_fill_F856B9F4-B12D-4756-A3F9-3CD14FD8CC60" x1="799.2855224609375" y1="520.2099609375" x2="877.8355712890625" y2="520.2099609375" gradientUnits="userSpaceOnUse">
<stop offset="0" stop-color="#94BFFF"  />
<stop offset="0.19" stop-color="#9DC4FF"  />
<stop offset="0.51" stop-color="#B7D2FF"  />
<stop offset="0.91" stop-color="#DFEAFF"  />
<stop offset="1" stop-color="#E9EFFF"  />
</linearGradient>
<linearGradient id="linear_fill_74A1F3B0-F96E-46BA-B4D5-4C96DB92EE61" x1="-259.9544677734375" y1="520.6300048828125" x2="-203.1444091796875" y2="520.6300048828125" gradientUnits="userSpaceOnUse">
<stop offset="0" stop-color="#94BFFF"  />
<stop offset="0.19" stop-color="#9DC4FF"  />
<stop offset="0.51" stop-color="#B7D2FF"  />
<stop offset="0.91" stop-color="#DFEAFF"  />
<stop offset="1" stop-color="#E9EFFF"  />
</linearGradient>
<linearGradient id="linear_fill_00AF49C6-2E47-41C9-945C-486A494BE8D1" x1="828.5755615234375" y1="522.3399658203125" x2="844.1156005859375" y2="522.3399658203125" gradientUnits="userSpaceOnUse">
<stop offset="0" stop-color="#6AAEFF"  />
<stop offset="1" stop-color="#005EFF"  />
</linearGradient>
<linearGradient id="linear_fill_19050A4A-4023-4213-805A-A53DC8C150DA" x1="837.6256103515625" y1="518.889892578125" x2="846.3455810546875" y2="518.889892578125" gradientUnits="userSpaceOnUse">
<stop offset="0" stop-color="#6AAEFF"  />
<stop offset="1" stop-color="#005EFF"  />
</linearGradient>
<linearGradient id="linear_fill_DF6C99D5-B2D7-4E95-B503-CB8D18B11E3D" x1="719.6756591796875" y1="513.1500244140625" x2="756.4656982421875" y2="513.1500244140625" gradientUnits="userSpaceOnUse">
<stop offset="0" stop-color="#94BFFF"  />
<stop offset="0.19" stop-color="#9DC4FF"  />
<stop offset="0.51" stop-color="#B7D2FF"  />
<stop offset="0.91" stop-color="#DFEAFF"  />
<stop offset="1" stop-color="#E9EFFF"  />
</linearGradient>
<linearGradient id="linear_fill_809B6F2B-4D9E-4EB4-9E6C-D892F65AF456" x1="-345.164306640625" y1="513.3399658203125" x2="-318.5543212890625" y2="513.3399658203125" gradientUnits="userSpaceOnUse">
<stop offset="0" stop-color="#94BFFF"  />
<stop offset="0.19" stop-color="#9DC4FF"  />
<stop offset="0.51" stop-color="#B7D2FF"  />
<stop offset="0.91" stop-color="#DFEAFF"  />
<stop offset="1" stop-color="#E9EFFF"  />
</linearGradient>
<linearGradient id="linear_fill_D08CB919-87C7-4366-9066-3B544ABF589E" x1="733.3856201171875" y1="514.1400146484375" x2="740.66552734375" y2="514.1400146484375" gradientUnits="userSpaceOnUse">
<stop offset="0" stop-color="#6AAEFF"  />
<stop offset="1" stop-color="#005EFF"  />
</linearGradient>
<linearGradient id="linear_fill_1648BF36-89EF-4FE5-B80A-759784AAF040" x1="737.6356201171875" y1="512.530029296875" x2="741.715576171875" y2="512.530029296875" gradientUnits="userSpaceOnUse">
<stop offset="0" stop-color="#6AAEFF"  />
<stop offset="1" stop-color="#005EFF"  />
</linearGradient>
<linearGradient id="linear_fill_7B06B4AC-3FF3-492D-ABB9-D4110A1ABDC2" x1="-389.9945068359375" y1="484.0799560546875" x2="-366.89453125" y2="484.0799560546875" gradientUnits="userSpaceOnUse">
<stop offset="0" stop-color="#94BFFF"  />
<stop offset="0.19" stop-color="#9DC4FF"  />
<stop offset="0.51" stop-color="#B7D2FF"  />
<stop offset="0.91" stop-color="#DFEAFF"  />
<stop offset="1" stop-color="#E9EFFF"  />
</linearGradient>
<linearGradient id="linear_fill_CC5DC92E-FB68-4B83-9914-799035FE4DDF" x1="-386.8944091796875" y1="484.2000732421875" x2="-370.1943359375" y2="484.2000732421875" gradientUnits="userSpaceOnUse">
<stop offset="0" stop-color="#94BFFF"  />
<stop offset="0.19" stop-color="#9DC4FF"  />
<stop offset="0.51" stop-color="#B7D2FF"  />
<stop offset="0.91" stop-color="#DFEAFF"  />
<stop offset="1" stop-color="#E9EFFF"  />
</linearGradient>
<linearGradient id="linear_fill_8F91EB0D-29E5-4204-96CF-E28C0CF5E1EE" x1="688.3956298828125" y1="484.7000732421875" x2="692.965576171875" y2="484.7000732421875" gradientUnits="userSpaceOnUse">
<stop offset="0" stop-color="#6AAEFF"  />
<stop offset="1" stop-color="#005EFF"  />
</linearGradient>
<linearGradient id="linear_fill_130C86C9-73B1-4446-AF83-AB9A5D4247F5" x1="691.0556640625" y1="483.68994140625" x2="693.6256103515625" y2="483.68994140625" gradientUnits="userSpaceOnUse">
<stop offset="0" stop-color="#6AAEFF"  />
<stop offset="1" stop-color="#005EFF"  />
</linearGradient>
<linearGradient id="linear_fill_CCE9786D-1B59-4ED5-9D0E-70C85EFBFDBC" x1="195.04559326171875" y1="639.489990234375" x2="274.525634765625" y2="639.489990234375" gradientUnits="userSpaceOnUse">
<stop offset="0" stop-color="#FF0007"  />
<stop offset="1" stop-color="#FFAAAC"  />
</linearGradient>
<linearGradient id="linear_fill_0813ADD6-FB0B-4DE5-9317-FF72C739945E" x1="204.0955810546875" y1="675.06005859375" x2="319.91552734375" y2="675.06005859375" gradientUnits="userSpaceOnUse">
<stop offset="0" stop-color="#6AAEFF"  />
<stop offset="1" stop-color="#005EFF"  />
</linearGradient>
<linearGradient id="linear_fill_9C8D6981-233A-4A81-B003-9B47D6197428" x1="168.8956298828125" y1="608.929931640625" x2="230.515625" y2="608.929931640625" gradientUnits="userSpaceOnUse">
<stop offset="0" stop-color="#F22AFF"  />
<stop offset="1" stop-color="#6C00E9"  />
</linearGradient>
<linearGradient id="linear_fill_1F0B4DCB-8A83-40E2-8B87-1DCB35F03FFA" x1="518.2655029296875" y1="241.239990234375" x2="360.655517578125" y2="241.239990234375" gradientUnits="userSpaceOnUse">
<stop offset="0" stop-color="#AAC9FF"  />
<stop offset="1" stop-color="#E9F1FF"  />
</linearGradient>
<linearGradient id="linear_fill_AE1ECE4A-B32D-409C-B31E-FBA75EB5EE8E" x1="421.275634765625" y1="234.260009765625" x2="354.5955810546875" y2="234.260009765625" gradientUnits="userSpaceOnUse">
<stop offset="0" stop-color="#F22AFF"  />
<stop offset="1" stop-color="#6C00E9"  />
</linearGradient>
<linearGradient id="linear_fill_5B68E97A-7C1C-4851-AC94-AF0DF57130B6" x1="518.265625" y1="265.5400390625" x2="421.275634765625" y2="265.5400390625" gradientUnits="userSpaceOnUse">
<stop offset="0" stop-color="#6AAEFF"  />
<stop offset="1" stop-color="#005EFF"  />
</linearGradient>
<linearGradient id="linear_fill_1075C420-3E55-4BF6-A485-5747D1A6C91C" x1="421.2755126953125" y1="276.0400390625" x2="360.655517578125" y2="276.0400390625" gradientUnits="userSpaceOnUse">
<stop offset="0" stop-color="#6AAEFF"  />
<stop offset="1" stop-color="#005EFF"  />
</linearGradient>
<linearGradient id="linear_fill_05FB9E3E-A90B-4AEF-8766-387D6394A180" x1="360.6556396484375" y1="256.7900390625" x2="354.5955810546875" y2="256.7900390625" gradientUnits="userSpaceOnUse">
<stop offset="0" stop-color="#F22AFF"  />
<stop offset="1" stop-color="#6C00E9"  />
</linearGradient>
<linearGradient id="linear_fill_D7D0EEC6-DB39-4E75-B3C5-7AFB16F95D92" x1="457.255615234375" y1="206.239990234375" x2="421.275634765625" y2="206.239990234375" gradientUnits="userSpaceOnUse">
<stop offset="0" stop-color="#6AAEFF"  />
<stop offset="1" stop-color="#005EFF"  />
</linearGradient>
<linearGradient id="linear_fill_3DB839EB-1FD8-4E06-86C7-5C88A4632212" x1="442.99560546875" y1="205.22998046875" x2="429.8555908203125" y2="205.22998046875" gradientUnits="userSpaceOnUse">
<stop offset="0" stop-color="#AAC9FF"  />
<stop offset="1" stop-color="#E9F1FF"  />
</linearGradient>
<linearGradient id="linear_fill_9D296F0B-ED21-4A87-A441-2D802998DBB3" x1="660.2255859375" y1="340.5799560546875" x2="772.8656005859375" y2="340.5799560546875" gradientUnits="userSpaceOnUse">
<stop offset="0" stop-color="#E9F2FF"  />
<stop offset="1" stop-color="#E9F1FF"  />
</linearGradient>
<linearGradient id="linear_fill_522D0802-FF39-426D-93FD-1699D50AABD3" x1="660.2255859375" y1="299.0699462890625" x2="772.8656005859375" y2="299.0699462890625" gradientUnits="userSpaceOnUse">
<stop offset="0" stop-color="#E9EFFF"  />
<stop offset="1" stop-color="#D4E3FF"  />
</linearGradient>
<linearGradient id="linear_fill_99B06545-4A0C-4548-968F-382F1E11D149" x1="641.2255859375" y1="293.25" x2="735.0755615234375" y2="293.25" gradientUnits="userSpaceOnUse">
<stop offset="0" stop-color="#AAC9FF"  />
<stop offset="1" stop-color="#E9F1FF"  />
</linearGradient>
<linearGradient id="linear_fill_355D7299-50CA-4F97-AC6B-961D9AD99B26" x1="715.20556640625" y1="292.97998046875" x2="772.8656005859375" y2="292.97998046875" gradientUnits="userSpaceOnUse">
<stop offset="0" stop-color="#AAC9FF"  />
<stop offset="1" stop-color="#E9F1FF"  />
</linearGradient>
<linearGradient id="linear_fill_38D92907-0D19-4206-BDD3-347614074673" x1="666.175537109375" y1="281.0499267578125" x2="754.0755615234375" y2="281.0499267578125" gradientUnits="userSpaceOnUse">
<stop offset="0" stop-color="#6AAEFF"  />
<stop offset="1" stop-color="#005EFF"  />
</linearGradient>
<linearGradient id="linear_fill_550B8FB1-88FE-472B-BB9F-39E6A2544D84" x1="885.045654296875" y1="147.030029296875" x2="676.8856201171875" y2="147.030029296875" gradientUnits="userSpaceOnUse">
<stop offset="0" stop-color="#6AAEFF"  />
<stop offset="1" stop-color="#005EFF"  />
</linearGradient>
<linearGradient id="linear_fill_DDC79217-9B4B-489F-9BAD-3C0CC3D7C6BD" x1="837.0655517578125" y1="96.77001953125" x2="837.015625" y2="230.8800048828125" gradientUnits="userSpaceOnUse">
<stop offset="0" stop-color="#004DAA"  />
<stop offset="1" stop-color="#00276A"  />
</linearGradient>
<linearGradient id="linear_fill_95696815-2A50-438C-9F66-C269CCEAD955" x1="744.525634765625" y1="149.030029296875" x2="765.1055908203125" y2="149.030029296875" gradientUnits="userSpaceOnUse">
<stop offset="0" stop-color="#6AAEFF"  />
<stop offset="1" stop-color="#005EFF"  />
</linearGradient>
<linearGradient id="linear_fill_F2E0BC7F-4258-4CF7-BE6E-657D348A6726" x1="714.3455810546875" y1="127.3499755859375" x2="712.6455078125" y2="169.9100341796875" gradientUnits="userSpaceOnUse">
<stop offset="0" stop-color="#AAC9FF"  />
<stop offset="1" stop-color="#E9F1FF"  />
</linearGradient>
<linearGradient id="linear_fill_864BDE9D-6E1B-42AB-BF97-33E07436E0F7" x1="111.54559326171875" y1="178.02001953125" x2="335.545654296875" y2="178.02001953125" gradientUnits="userSpaceOnUse">
<stop offset="0" stop-color="#6AAEFF"  />
<stop offset="1" stop-color="#005EFF"  />
</linearGradient>
<linearGradient id="linear_fill_383D895A-7DC0-44A0-A3A7-28B9492650DE" x1="118.45556640625" y1="179.9400634765625" x2="339.235595703125" y2="179.9400634765625" gradientUnits="userSpaceOnUse">
<stop offset="0" stop-color="#FFFFFF"  />
<stop offset="1" stop-color="#E9EFFF"  />
</linearGradient>
<linearGradient id="linear_fill_43139652-49DB-49F5-BAA3-2FA3495B7C78" x1="135.03558349609375" y1="176.3299560546875" x2="350.1256103515625" y2="176.3299560546875" gradientUnits="userSpaceOnUse">
<stop offset="0" stop-color="#F22AFF"  />
<stop offset="1" stop-color="#6C00E9"  />
</linearGradient>
<linearGradient id="linear_fill_6ED4C836-6405-46E1-9953-814B88DF626A" x1="347.8656005859375" y1="98.3599853515625" x2="358.015625" y2="98.3599853515625" gradientUnits="userSpaceOnUse">
<stop offset="0" stop-color="#6C00E9"  />
<stop offset="1" stop-color="#F22AFF"  />
</linearGradient>
<linearGradient id="linear_fill_03FD9AFB-5911-468E-BFDF-D790865F4F5B" x1="178.67399667179654" y1="191.66602206361242" x2="179.07932339123784" y2="200.1663638361829" gradientUnits="userSpaceOnUse">
<stop offset="0" stop-color="#6AAEFF"  />
<stop offset="1" stop-color="#005EFF"  />
</linearGradient>
<linearGradient id="linear_fill_F01CA552-AEEE-41C9-97E4-865E14225030" x1="213.25555419921875" y1="208.72998046875" x2="221.76556396484375" y2="208.72998046875" gradientUnits="userSpaceOnUse">
<stop offset="0" stop-color="#6AAEFF"  />
<stop offset="1" stop-color="#005EFF"  />
</linearGradient>
<linearGradient id="linear_fill_945952D8-1DDF-4DB3-9F4D-769FDD2DC8C5" x1="263.965576171875" y1="144.97998046875" x2="272.485595703125" y2="144.97998046875" gradientUnits="userSpaceOnUse">
<stop offset="0" stop-color="#6AAEFF"  />
<stop offset="1" stop-color="#005EFF"  />
</linearGradient>
<linearGradient id="linear_fill_4F9D0E2D-A08B-4C24-A29D-07F54C4AB098" x1="294.3956298828125" y1="161.949951171875" x2="302.905517578125" y2="161.949951171875" gradientUnits="userSpaceOnUse">
<stop offset="0" stop-color="#6AAEFF"  />
<stop offset="1" stop-color="#005EFF"  />
</linearGradient>
<linearGradient id="linear_fill_2940A0EF-D913-4C20-8175-C9341C475DAC" x1="638.545654296875" y1="378.6298828125" x2="655.5955810546875" y2="378.6298828125" gradientUnits="userSpaceOnUse">
<stop offset="0" stop-color="#002255"  />
<stop offset="1" stop-color="#003A7F"  />
</linearGradient>
<linearGradient id="linear_fill_2E36DBA0-9160-444D-9F42-63BD003C88AE" x1="626.5355224609375" y1="375.719970703125" x2="643.41552734375" y2="375.719970703125" gradientUnits="userSpaceOnUse">
<stop offset="0" stop-color="#002255"  />
<stop offset="1" stop-color="#003A7F"  />
</linearGradient>
<linearGradient id="linear_fill_797CDE8C-0090-418D-8285-11880B8A6C07" x1="633.295654296875" y1="347.6099853515625" x2="643.795654296875" y2="347.6099853515625" gradientUnits="userSpaceOnUse">
<stop offset="0" stop-color="#FF7F83"  />
<stop offset="1" stop-color="#FFD4D5"  />
</linearGradient>
<linearGradient id="linear_fill_2AE71597-F86C-4224-840D-4F242F3E6AB6" x1="621.6055908203125" y1="345.4300537109375" x2="632.005615234375" y2="345.4300537109375" gradientUnits="userSpaceOnUse">
<stop offset="0" stop-color="#FF7F83"  />
<stop offset="1" stop-color="#FFD4D5"  />
</linearGradient>
<linearGradient id="linear_fill_0CCA2CC4-7005-4BB4-A3E6-C4F8DE7A7943" x1="617.20556640625" y1="308.3099365234375" x2="649.685546875" y2="308.3099365234375" gradientUnits="userSpaceOnUse">
<stop offset="0" stop-color="#6AAEFF"  />
<stop offset="1" stop-color="#005EFF"  />
</linearGradient>
<linearGradient id="linear_fill_22598551-3623-4C87-8BFE-328C520F4E1E" x1="611.3055419921875" y1="259.0699462890625" x2="626.445556640625" y2="259.0699462890625" gradientUnits="userSpaceOnUse">
<stop offset="0" stop-color="#D4E3FF"  />
<stop offset="1" stop-color="#E9EFFF"  />
</linearGradient>
<linearGradient id="linear_fill_83808D6B-88C9-44CB-879A-CBBE5F2A1053" x1="628.8656005859375" y1="227.1400146484375" x2="642.9256591796875" y2="227.1400146484375" gradientUnits="userSpaceOnUse">
<stop offset="0" stop-color="#FF7F83"  />
<stop offset="1" stop-color="#FFD4D5"  />
</linearGradient>
<linearGradient id="linear_fill_DFB1EB6C-0E56-45E8-88E4-3623FD100E59" x1="661.1455078125" y1="235.2799072265625" x2="668.365478515625" y2="235.2799072265625" gradientUnits="userSpaceOnUse">
<stop offset="0" stop-color="#FF7F83"  />
<stop offset="1" stop-color="#FFD4D5"  />
</linearGradient>
<linearGradient id="linear_fill_8415A960-BC5C-4A06-8468-512CB56379EB" x1="615.4957275390625" y1="267.8800048828125" x2="663.9256591796875" y2="267.8800048828125" gradientUnits="userSpaceOnUse">
<stop offset="0" stop-color="#E9EFFF"  />
<stop offset="1" stop-color="#D4E3FF"  />
</linearGradient>
<linearGradient id="linear_fill_AE752945-BFBC-4CA1-B5B7-A23F71C22E89" x1="636.3455810546875" y1="284.5999755859375" x2="643.945556640625" y2="284.5999755859375" gradientUnits="userSpaceOnUse">
<stop offset="0" stop-color="#6AAEFF"  />
<stop offset="1" stop-color="#005EFF"  />
</linearGradient>
<linearGradient id="linear_fill_21A42169-1D2F-417A-BF22-7E4BABB6CC41" x1="638.45556640625" y1="269.5400390625" x2="645.015625" y2="269.5400390625" gradientUnits="userSpaceOnUse">
<stop offset="0" stop-color="#94B9FF"  />
<stop offset="0.19" stop-color="#9ABDFF"  />
<stop offset="0.44" stop-color="#ABC8FF"  />
<stop offset="0.72" stop-color="#C7DBFF"  />
<stop offset="1" stop-color="#E9F2FF"  />
</linearGradient>
<linearGradient id="linear_fill_06787771-3FCA-411F-B7D3-E1F927A6F31D" x1="615.49560546875" y1="277.429931640625" x2="627.9156494140625" y2="277.429931640625" gradientUnits="userSpaceOnUse">
<stop offset="0" stop-color="#94B9FF"  />
<stop offset="0.19" stop-color="#9ABDFF"  />
<stop offset="0.44" stop-color="#ABC8FF"  />
<stop offset="0.72" stop-color="#C7DBFF"  />
<stop offset="1" stop-color="#E9F2FF"  />
</linearGradient>
<linearGradient id="linear_fill_1B137643-A624-440A-92F6-1A11119D5990" x1="651.185546875" y1="252.9100341796875" x2="654.3255615234375" y2="252.9100341796875" gradientUnits="userSpaceOnUse">
<stop offset="0" stop-color="#E9F2FF"  />
<stop offset="0.28" stop-color="#C7DBFF"  />
<stop offset="0.56" stop-color="#ABC8FF"  />
<stop offset="0.81" stop-color="#9ABDFF"  />
<stop offset="1" stop-color="#94B9FF"  />
</linearGradient>
<linearGradient id="linear_fill_225BF097-C796-45C4-93FF-11661E69D555" x1="617.4356689453125" y1="297.6500244140625" x2="638.765625" y2="297.6500244140625" gradientUnits="userSpaceOnUse">
<stop offset="0" stop-color="#6AAEFF"  />
<stop offset="1" stop-color="#002294"  />
</linearGradient>
<linearGradient id="linear_fill_EA7B8971-B145-4630-8535-DDAAA301D118" x1="296.175537109375" y1="300.4200439453125" x2="307.8956298828125" y2="300.4200439453125" gradientUnits="userSpaceOnUse">
<stop offset="0" stop-color="#002255"  />
<stop offset="1" stop-color="#003A7F"  />
</linearGradient>
<linearGradient id="linear_fill_D451B8B1-7544-4771-8CD7-74A1FBA2A7B4" x1="272.5755615234375" y1="364.679931640625" x2="295.3656005859375" y2="364.679931640625" gradientUnits="userSpaceOnUse">
<stop offset="0" stop-color="#6AAEFF"  />
<stop offset="1" stop-color="#005EFF"  />
</linearGradient>
<linearGradient id="linear_fill_56B31A6F-D463-4304-87B6-B5E57B0C2160" x1="282.4755859375" y1="357.919921875" x2="305.265625" y2="357.919921875" gradientUnits="userSpaceOnUse">
<stop offset="0" stop-color="#6AAEFF"  />
<stop offset="1" stop-color="#005EFF"  />
</linearGradient>
<linearGradient id="linear_fill_8354AC0A-FC31-454E-A46D-5B040EE029F3" x1="295.07568359375" y1="309.530029296875" x2="314.3956298828125" y2="309.530029296875" gradientUnits="userSpaceOnUse">
<stop offset="0" stop-color="#002255"  />
<stop offset="1" stop-color="#003A7F"  />
</linearGradient>
<linearGradient id="linear_fill_737CD2D0-12BE-4BE5-9196-67CDF3D11E22" x1="285.1656494140625" y1="316.2799072265625" x2="304.49560546875" y2="316.2799072265625" gradientUnits="userSpaceOnUse">
<stop offset="0" stop-color="#002255"  />
<stop offset="1" stop-color="#003A7F"  />
</linearGradient>
<linearGradient id="linear_fill_9ED83BDB-032C-440A-BCFB-675A8AA0CD33" x1="250.685546875" y1="202.090087890625" x2="259.59552001953125" y2="202.090087890625" gradientUnits="userSpaceOnUse">
<stop offset="0" stop-color="#FFD4D5"  />
<stop offset="1" stop-color="#FF7F83"  />
</linearGradient>
<linearGradient id="linear_fill_8F52CE35-E46B-4E20-B91D-1EC647F32DAF" x1="283.4156494140625" y1="183.0799560546875" x2="291.9556884765625" y2="183.0799560546875" gradientUnits="userSpaceOnUse">
<stop offset="0" stop-color="#FFD4D5"  />
<stop offset="1" stop-color="#FF7F83"  />
</linearGradient>
<linearGradient id="linear_fill_0148EEC0-8512-4427-BB43-57740AD7E8C0" x1="288.1455078125" y1="205.780029296875" x2="309.8955078125" y2="205.780029296875" gradientUnits="userSpaceOnUse">
<stop offset="0" stop-color="#6AAEFF"  />
<stop offset="1" stop-color="#002FE9"  />
</linearGradient>
<linearGradient id="linear_fill_70A2CF9F-B249-4046-AC91-572ED5B132CA" x1="292.265625" y1="220.5400390625" x2="301.545654296875" y2="220.5400390625" gradientUnits="userSpaceOnUse">
<stop offset="0" stop-color="#FFD4D5"  />
<stop offset="1" stop-color="#FF7F83"  />
</linearGradient>
<linearGradient id="linear_fill_59475524-F9CF-4351-9E33-DF179E5DAF40" x1="286.2655029296875" y1="209.1500244140625" x2="300.965576171875" y2="209.1500244140625" gradientUnits="userSpaceOnUse">
<stop offset="0" stop-color="#FFD4D5"  />
<stop offset="1" stop-color="#FF7F83"  />
</linearGradient>
<linearGradient id="linear_fill_4AE02DE7-BB73-451C-94F4-AE54D8DC8A6A" x1="256.0655517578125" y1="242.6700439453125" x2="316.45556640625" y2="242.6700439453125" gradientUnits="userSpaceOnUse">
<stop offset="0" stop-color="#6AAEFF"  />
<stop offset="1" stop-color="#005EFF"  />
</linearGradient>
<linearGradient id="linear_fill_32175705-5CAF-4540-A605-3911474D9294" x1="279.7255859375" y1="226.6300048828125" x2="288.3155517578125" y2="226.6300048828125" gradientUnits="userSpaceOnUse">
<stop offset="0" stop-color="#6A8CFF"  />
<stop offset="1" stop-color="#0011BF"  />
</linearGradient>
<linearGradient id="linear_fill_079B1578-7A03-4979-ADF5-FBAFF93CD777" x1="302.5655517578125" y1="255.25" x2="316.45556640625" y2="255.25" gradientUnits="userSpaceOnUse">
<stop offset="0" stop-color="#6A8CFF"  />
<stop offset="1" stop-color="#0011BF"  />
</linearGradient>
<linearGradient id="linear_fill_B2788534-D4BA-4B3F-966D-C00258069EA4" x1="56.91558837890625" y1="419.419921875" x2="61.3255615234375" y2="419.419921875" gradientUnits="userSpaceOnUse">
<stop offset="0" stop-color="#E9F2FF"  />
<stop offset="0.28" stop-color="#C7DBFF"  />
<stop offset="0.56" stop-color="#ABC8FF"  />
<stop offset="0.81" stop-color="#9ABDFF"  />
<stop offset="1" stop-color="#94B9FF"  />
</linearGradient>
<linearGradient id="linear_fill_77A98C99-0A80-4469-8C70-5284D833657A" x1="59.34819873934523" y1="327.1880003034193" x2="54.052586733473866" y2="294.9905874650674" gradientUnits="userSpaceOnUse">
<stop offset="0" stop-color="#E9F2FF"  />
<stop offset="0.28" stop-color="#C7DBFF"  />
<stop offset="0.56" stop-color="#ABC8FF"  />
<stop offset="0.81" stop-color="#9ABDFF"  />
<stop offset="1" stop-color="#94B9FF"  />
</linearGradient>
<linearGradient id="linear_fill_D8E8883E-8C20-484B-A21F-7B332FD7C9E1" x1="566.755615234375" y1="208.9300537109375" x2="571.1656494140625" y2="208.9300537109375" gradientUnits="userSpaceOnUse">
<stop offset="0" stop-color="#E9F2FF"  />
<stop offset="0.28" stop-color="#C7DBFF"  />
<stop offset="0.56" stop-color="#ABC8FF"  />
<stop offset="0.81" stop-color="#9ABDFF"  />
<stop offset="1" stop-color="#94B9FF"  />
</linearGradient>
<linearGradient id="linear_fill_1CC57E56-C605-43FB-920C-00EC30FC4F12" x1="569.227351928791" y1="171.07790083500097" x2="563.9991855919508" y2="138.86946751771077" gradientUnits="userSpaceOnUse">
<stop offset="0" stop-color="#E9F2FF"  />
<stop offset="0.28" stop-color="#C7DBFF"  />
<stop offset="0.56" stop-color="#ABC8FF"  />
<stop offset="0.81" stop-color="#9ABDFF"  />
<stop offset="1" stop-color="#94B9FF"  />
</linearGradient>
<linearGradient id="linear_fill_F2EECC6F-D658-434F-BEE8-E96EC0263696" x1="637.505615234375" y1="616.18994140625" x2="641.9156494140625" y2="616.18994140625" gradientUnits="userSpaceOnUse">
<stop offset="0" stop-color="#E9F2FF"  />
<stop offset="0.28" stop-color="#C7DBFF"  />
<stop offset="0.56" stop-color="#ABC8FF"  />
<stop offset="0.81" stop-color="#9ABDFF"  />
<stop offset="1" stop-color="#94B9FF"  />
</linearGradient>
<linearGradient id="linear_fill_FA1AF856-A160-45F7-937B-CD61EC75EDBE" x1="644.4951325209673" y1="566.1398560889055" x2="621.4222382508503" y2="543.0669618187886" gradientUnits="userSpaceOnUse">
<stop offset="0" stop-color="#E9F2FF"  />
<stop offset="0.28" stop-color="#C7DBFF"  />
<stop offset="0.56" stop-color="#ABC8FF"  />
<stop offset="0.81" stop-color="#9ABDFF"  />
<stop offset="1" stop-color="#94B9FF"  />
</linearGradient>
<linearGradient id="linear_fill_F247D2F1-DB50-4AEF-90EB-E04FB2FE1C21" x1="893.3255615234375" y1="395.3800048828125" x2="897.735595703125" y2="395.3800048828125" gradientUnits="userSpaceOnUse">
<stop offset="0" stop-color="#E9F2FF"  />
<stop offset="0.28" stop-color="#C7DBFF"  />
<stop offset="0.56" stop-color="#ABC8FF"  />
<stop offset="0.81" stop-color="#9ABDFF"  />
<stop offset="1" stop-color="#94B9FF"  />
</linearGradient>
<linearGradient id="linear_fill_913F7A77-B902-47FA-A9A4-969192A1A20C" x1="911.8455664062501" y1="328.9800341796875" x2="879.2055664062501" y2="328.9800341796875" gradientUnits="userSpaceOnUse">
<stop offset="0" stop-color="#E9F2FF"  />
<stop offset="0.28" stop-color="#C7DBFF"  />
<stop offset="0.56" stop-color="#ABC8FF"  />
<stop offset="0.81" stop-color="#9ABDFF"  />
<stop offset="1" stop-color="#94B9FF"  />
</linearGradient>
</defs>
</svg>
