<svg xmlns="http://www.w3.org/2000/svg" xmlns:xlink="http://www.w3.org/1999/xlink" width="850.030029296875" height="785.689208984375" viewBox="0 0 850.030029296875 785.689208984375" fill="none">
<path d="M54.3964 616.549L139.487 665.744C144.299 668.522 152.072 668.522 156.883 665.744L241.994 616.56C246.805 613.782 246.805 609.271 241.994 606.492L156.981 557.41C152.169 554.642 144.377 554.631 139.565 557.41L54.3964 606.492C49.5847 609.271 49.5847 613.77 54.3964 616.549Z"   fill="url(#linear_fill_D761EF49-C626-47F3-9ACF-8E86F865385A)" >
</path>
<path d="M308.608 706.393L440.187 782.467C447.628 786.763 459.677 786.763 467.118 782.467L598.697 706.41C606.138 702.113 606.138 695.137 598.697 690.841L467.238 614.941C459.798 610.644 447.718 610.644 440.278 614.941L308.608 690.841C301.167 695.137 301.167 702.096 308.608 706.393Z"   fill="url(#linear_fill_019F09AB-06EC-43C7-83E8-CD7AC2F8EC3B)" >
</path>
<path d="M420.606 493.165L509.054 540.345C514.055 543.022 522.155 543.022 527.156 540.345L615.604 493.165C620.605 490.51 620.605 486.172 615.604 483.517L527.237 436.445C522.236 433.768 514.116 433.768 509.114 436.445L420.606 483.528C415.605 486.183 415.605 490.499 420.606 493.165Z"   fill="url(#linear_fill_87822B07-C207-4494-A598-8A9712C3B1F9)" >
</path>
<path d="M231.116 446.112L287.77 478.861C291.414 480.711 295.719 480.711 299.376 478.861L355.991 446.119C359.194 444.27 359.194 441.266 355.991 439.417L299.389 406.742C295.745 404.892 291.44 404.892 287.796 406.742L231.104 439.432C227.914 441.259 227.914 444.262 231.116 446.112Z"   fill="url(#linear_fill_896D11CF-4B88-43BD-8E35-523AF6DA2DCB)" >
</path>
<path d="M209.305 244.278L13.2095 357.556C9.41691 359.74 7.08962 363.762 7.08962 368.1L7.08962 520.477L8.83509 525.189C9.56776 526.051 11.5072 527.2 11.5072 527.2L5.71048 525.189C5.21486 525.103 4.28825 524.729 4.28825 524.729C3.03841 524.155 1.98251 523.264 1.22829 522.144C0.43098 520.966 0 518.15 0 518.15L0 365.744C0 361.377 2.32729 357.355 6.09837 355.172L204.392 240.659C205.879 239.797 207.689 239.682 209.284 240.314L215.49 242.411C214.348 242.152 213.163 242.267 212.085 242.727L209.305 244.278Z"   fill="url(#linear_fill_D5520D4D-A701-4882-94A7-D9141DD0745E)" >
</path>
<path d="M214.229 413.461L17.9818 526.78C16.0242 527.922 13.641 528.064 11.5345 527.179L8.87474 525.181C7.74701 523.867 7.12994 522.183 7.12994 520.441L7.12994 368.122C7.12994 363.754 9.44925 359.729 13.2367 357.559L209.314 244.297L211.484 243.013C213.144 242.242 214.357 242.128 215.485 242.384C218.655 243.669 219.932 245.696 219.911 247.895L219.911 403.64C219.911 407.694 217.74 411.434 214.229 413.461Z"   fill="#F3F6FF" >
</path>
<path d="M39.01 318.071L60.2903 305.78L60.35 477.759L39.0698 490.05L39.01 318.071Z"   fill="url(#linear_fill_921EDDC1-83BA-4C99-8DFC-2E15D9885B0E)" >
</path>
<path d="M81.59 243.24L102.87 231.32L102.9 453.239L81.6198 465.51L81.59 243.24Z"   fill="url(#linear_fill_BB4C9BD2-6BD6-43AE-AF85-9D93ECF07E84)" >
</path>
<path d="M124.16 342.597L145.44 330.31L145.47 428.625L124.19 440.9L124.16 342.597Z"   fill="url(#linear_fill_945E731C-DB34-4E9B-B950-3647A759A4A7)" >
</path>
<path d="M166.71 354.9L187.99 342.62L188.02 404.083L166.74 416.37L166.71 354.9Z"   fill="url(#linear_fill_2E5E208B-6C4E-4AE4-BC39-6AD43AD042EF)" >
</path>
<path d="M504.28 241.753L504.28 269.23L393.607 241.881L310.66 193.91L504.28 241.753Z"   fill="url(#linear_fill_85A3F9CD-0111-4244-9ECD-BCD3B296D4DA)" >
</path>
<path d="M338.27 481.36L338.303 145.942L504.27 50.1201L504.27 385.539L338.27 481.36Z"   fill="url(#linear_fill_1398DA94-4690-40C5-84A5-C3B58E65BE7F)" >
</path>
<path d="M365.95 513.33L365.983 177.912L531.95 82.0901L531.95 417.509L365.95 513.33Z"   fill="url(#linear_fill_FA2C27DA-F1FC-4E70-8B4A-7A2D209E49CE)" >
</path>
<path d="M587.27 289.73L504.28 269.228L504.28 241.75L587.27 289.73Z"   fill="url(#linear_fill_60E9FA04-83D3-4A17-973C-6F705ECFEAC4)" >
</path>
<path d="M407.43 537.29L407.463 201.864L573.44 106.04L573.44 441.466L407.43 537.29Z"   fill="url(#linear_fill_B2B89966-C322-4034-AA00-F29593D32B65)" >
</path>
<rect x="446.4244384765625" y="219.443603515625" width="86.72" height="2.17" transform="rotate(-30.000000445292045 446.4244384765625 219.443603515625)"   fill="#B4C9FC" >
</rect>
<rect x="427.63671875" y="251.982421875" width="151.79" height="2.17" transform="rotate(-30.010000663257948 427.63671875 251.982421875)"   fill="#B4C9FC" >
</rect>
<rect x="427.6400146484375" y="273.665771484375" width="151.79" height="2.17" transform="rotate(-30.010000663257948 427.6400146484375 273.665771484375)"   fill="#B4C9FC" >
</rect>
<rect x="427.643310546875" y="295.446044921875" width="151.79" height="2.17" transform="rotate(-30.010000663257948 427.643310546875 295.446044921875)"   fill="#B4C9FC" >
</rect>
<rect x="427.6365966796875" y="317.02294921875" width="151.79" height="2.17" transform="rotate(-30.010000663257948 427.6365966796875 317.02294921875)"   fill="#B4C9FC" >
</rect>
<rect x="427.6448974609375" y="338.715087890625" width="151.79" height="2.17" transform="rotate(-30.010000663257948 427.6448974609375 338.715087890625)"   fill="#B4C9FC" >
</rect>
<rect x="404.9366455078125" y="195.562744140625" width="86.72" height="2.17" transform="rotate(-29.99000022716064 404.9366455078125 195.562744140625)"   fill="#B4C9FC" >
</rect>
<rect x="377.25146484375" y="163.530517578125" width="86.72" height="2.17" transform="rotate(-30.000000445292045 377.25146484375 163.530517578125)"   fill="#B4C9FC" >
</rect>
<path d="M587.27 289.721L587.27 449.438L393.61 561.25L393.61 241.88L504.287 269.218L587.27 289.721Z"   fill="#F3F6FF" >
</path>
<path d="M461.62 374.818L490.042 356.857L504.236 365.075L546.92 340.46L546.92 389.67L461.62 438.88L461.62 374.818Z"   fill="url(#linear_fill_313DB790-A884-4C73-9A1D-BAC4854B87B4)" >
</path>
<path d="M497.14 360.96L546.86 332.22L546.86 340.459L504.24 365.07L497.14 360.96Z"   fill="url(#linear_fill_E305D05F-6EAF-4785-B8FC-35DB97C6077D)" >
</path>
<path d="M564.572 14.5701L597.7 20.5681C597.437 31.4398 595.205 42.1779 591.109 52.2475C584.272 69.2509 575.309 75.3401 575.309 75.3401L541.75 64.5412C541.75 64.5412 554.607 53.5419 558.669 41.1387C561.344 32.4547 563.319 23.5701 564.572 14.5701Z"   fill="url(#linear_fill_E52B25DA-E296-4A83-B6E7-8112429E88D3)" >
</path>
<rect x="569.0855712890625" y="28.728271484375" width="1.09" height="19.39" transform="rotate(-76.27000038229588 569.0855712890625 28.728271484375)"   fill="#2968E5" >
</rect>
<rect x="566.4365234375" y="38.77880859375" width="1.09" height="19.39" transform="rotate(-76.27000038229588 566.4365234375 38.77880859375)"   fill="#2968E5" >
</rect>
<rect x="562.615234375" y="47.958251953125" width="1.09" height="19.39" transform="rotate(-76.27000038229588 562.615234375 47.958251953125)"   fill="#2968E5" >
</rect>
<rect x="557.2012939453125" y="57.657958984375" width="1.09" height="19.39" transform="rotate(-76.27000038229588 557.2012939453125 57.657958984375)"   fill="#2968E5" >
</rect>
<path d="M459.39 12.3716L478.361 0C483.26 5.42646 487.132 11.6998 489.79 18.5077C494.301 29.9709 492.791 37.091 492.791 37.091L471.39 47.31C471.39 47.31 472.602 36.0076 468.84 28.069C466.112 22.5953 462.953 17.3438 459.39 12.3716Z"   fill="url(#linear_fill_EF83026C-59BE-44A5-A8BE-F80FBC58E9D1)" >
</path>
<rect x="467.7032470703125" y="16.437744140625" width="13.04" height="1.09" transform="rotate(-29.73999941817628 467.7032470703125 16.437744140625)"   fill="#B4C9FC" >
</rect>
<rect x="471.0753173828125" y="22.559814453125" width="13.04" height="1.09" transform="rotate(-29.73999941817628 471.0753173828125 22.559814453125)"   fill="#B4C9FC" >
</rect>
<rect x="473.425048828125" y="28.7421875" width="13.04" height="1.09" transform="rotate(-29.750000174544745 473.425048828125 28.7421875)"   fill="#B4C9FC" >
</rect>
<rect x="475.2601318359375" y="35.993408203125" width="13.04" height="1.09" transform="rotate(-29.750000174544745 475.2601318359375 35.993408203125)"   fill="#B4C9FC" >
</rect>
<path d="M279.989 110.46L255.23 133.279C261.259 142.333 268.887 150.21 277.739 156.527C292.598 167.22 303.439 167.58 303.439 167.58L325.99 140.471C325.99 140.471 309.248 138.077 299.193 129.761C292.287 123.849 285.869 117.394 279.989 110.46Z"   fill="url(#linear_fill_C1609DA5-4429-434D-B238-10FACE2B2931)" >
</path>
<rect x="269.5384521484375" y="138.044921875" width="19.39" height="1.09" transform="rotate(-46.030000149896104 269.5384521484375 138.044921875)"   fill="#B4C9FC" >
</rect>
<rect x="277.1307373046875" y="145.125" width="19.39" height="1.09" transform="rotate(-46.030000149896104 277.1307373046875 145.125)"   fill="#B4C9FC" >
</rect>
<rect x="285.285888671875" y="150.840576171875" width="19.39" height="1.09" transform="rotate(-46.030000149896104 285.285888671875 150.840576171875)"   fill="#B4C9FC" >
</rect>
<rect x="295.0462646484375" y="156.141845703125" width="19.39" height="1.09" transform="rotate(-46.030000149896104 295.0462646484375 156.141845703125)"   fill="#B4C9FC" >
</rect>
<path d="M367.721 52.3514L345.079 52C343.843 59.2068 343.929 66.5814 345.329 73.7609C347.64 85.8516 352.76 91.04 352.76 91.04L376.31 88.2291C376.31 88.2291 369.239 79.3202 368.18 70.5987C367.541 64.5396 367.387 58.4377 367.721 52.3514Z"   fill="url(#linear_fill_44F437F0-0297-48A2-9287-ED67563AC764)" >
</path>
<rect x="349.8487548828125" y="60.759521484375" width="13.04" height="1.09" transform="rotate(-2.579999848129517 349.8487548828125 60.759521484375)"   fill="#2968E5" >
</rect>
<rect x="350.288818359375" y="69.55810546875" width="13.05042783053491" height="1.090871651478762" transform="rotate(-2.2906101706022493 350.288818359375 69.55810546875)"   fill="#2968E5" >
</rect>
<rect x="351.5953369140625" y="74.33837890625" width="13.04" height="1.09" transform="rotate(-2.5700000438011634 351.5953369140625 74.33837890625)"   fill="#2968E5" >
</rect>
<rect x="353.875244140625" y="83.251953125" width="13.05042783053491" height="1.090871651478762" transform="rotate(-2.2906101706022493 353.875244140625 83.251953125)"   fill="#2968E5" >
</rect>
<path d="M393.61 241.876L393.61 561.25L310.62 513.347L310.62 193.9L393.61 241.876Z"   fill="url(#linear_fill_87F915DF-8DED-44A3-9078-8138DCDE7FF7)" >
</path>
<path d="M326.991 322.001C326.285 321.588 325.419 321.593 324.718 322.005C324.018 322.422 323.596 323.188 323.619 323.999L323.619 333.56C323.619 335.407 324.61 337.117 326.211 338.038L376.678 367.18C377.487 367.643 378.478 367.643 379.281 367.18C380.09 366.713 380.586 365.851 380.58 364.92L380.58 356.001C380.58 354.145 379.589 352.426 377.983 351.5L326.991 322.001Z"   fill="#F3F6FF" >
</path>
<path d="M323.619 360.001C323.619 361.847 324.61 363.556 326.211 364.481L376.678 393.62C377.487 394.083 378.472 394.083 379.281 393.62C380.084 393.157 380.58 392.296 380.58 391.371L380.58 382.369C380.58 380.514 379.589 378.796 377.983 377.871L326.98 348.462C326.273 348.054 325.407 348.058 324.707 348.475C324.012 348.892 323.596 349.657 323.619 350.468L323.619 360.001Z"   fill="#F3F6FF" >
</path>
<path d="M379.281 423.001C380.084 422.538 380.58 421.678 380.58 420.749L380.58 411.799C380.58 409.941 379.589 408.225 377.983 407.301L326.981 377.892C326.286 377.489 325.437 377.489 324.742 377.887C324.053 378.285 323.626 379.022 323.62 379.818L323.62 389.382C323.62 391.23 324.605 392.937 326.212 393.862L376.678 423.001C377.481 423.463 378.472 423.463 379.281 423.001Z"   fill="#F3F6FF" >
</path>
<path d="M642.67 430.692L707.04 393.52L771.41 430.648L707.04 467.85L642.67 430.692Z"   fill="url(#linear_fill_6F10A41A-BACD-46DE-A5C4-3285F64DE0FA)" >
</path>
<path d="M642.67 430.69L642.67 449.232L707.04 486.39L707.04 467.847L642.67 430.69Z"   fill="url(#linear_fill_C4774C78-767B-46F0-8139-8D79EC811C56)" >
</path>
<path d="M707.04 467.851L707.04 486.39L771.41 449.189L771.41 430.65L707.04 467.851Z"   fill="url(#linear_fill_113EBBFE-96CB-4B2D-B9A1-86C74A641355)" >
</path>
<path d="M642.61 402.732L706.98 365.56L771.35 402.688L706.98 439.89L642.61 402.732Z"   fill="url(#linear_fill_B34A3EAD-AFFD-4CCA-B32A-2F2DFE1883E9)" >
</path>
<path d="M642.61 402.73L642.61 421.27L706.98 458.44L706.98 439.889L642.61 402.73Z"   fill="url(#linear_fill_FC184857-9142-4E28-B2A8-270E045C9C59)" >
</path>
<path d="M706.98 439.892L706.98 458.44L771.35 421.232L771.35 402.69L706.98 439.892Z"   fill="url(#linear_fill_298A528E-4037-4050-A4C8-248D3E0D0AB8)" >
</path>
<path d="M642.61 374.882L706.98 337.71L771.35 374.838L706.98 412.04L642.61 374.882Z"   fill="url(#linear_fill_6A2A0831-11B5-4F00-949B-A7B3A2A30525)" >
</path>
<path d="M642.61 374.88L642.61 393.422L706.98 430.58L706.98 412.037L642.61 374.88Z"   fill="url(#linear_fill_B517B7A1-7E03-4C7A-8332-E4A5410FF08F)" >
</path>
<path d="M706.98 412.041L706.98 430.58L771.35 393.379L771.35 374.84L706.98 412.041Z"   fill="url(#linear_fill_FB214C63-2644-4B31-A347-F75D01B4E106)" >
</path>
<path d="M421.29 664.343L602.39 768.91L715.57 703.553L602.39 638.214L602.39 612.068L557.1 585.94L421.29 664.343Z"   fill="url(#linear_fill_D11A4725-F08C-44CD-ABFF-83EA92930985)" >
</path>
<path d="M602.38 625.2L726.88 697.033L715.575 703.56L602.38 638.208L602.38 625.2Z"   fill="url(#linear_fill_7E32E69C-EC3A-4324-B12F-8A9FA20052E2)" >
</path>
<rect x="661.749755859375" y="695.88916015625" width="51.69" height="2.17" transform="rotate(-31.179999150638242 661.749755859375 695.88916015625)"   fill="url(#linear_fill_3A3599C7-B7EB-43BB-B06E-E26F77C7117E)" >
</rect>
<rect x="592.810546875" y="682.55859375" width="78.04" height="2.17" transform="rotate(-30.12000034954476 592.810546875 682.55859375)"   fill="url(#linear_fill_C0CF83E0-3CAE-429A-AF2E-27D8F132BA12)" >
</rect>
<rect x="615.409912109375" y="616.9638671875" width="39.63" height="2.17" transform="rotate(-31.01999859381159 615.409912109375 616.9638671875)"   fill="url(#linear_fill_0E9672C3-DF1B-4336-8FB6-866AF6096D7F)" >
</rect>
<rect x="558.8209228515625" y="598.936767578125" width="52.7" height="2.17" transform="rotate(-30.76999963465143 558.8209228515625 598.936767578125)"   fill="url(#linear_fill_C51CE051-94F5-4906-87EC-AE96C387F7C6)" >
</rect>
<path d="M713.321 652.569L696.752 662.139C695.954 662.592 695.462 663.436 695.462 664.349C695.462 665.265 695.954 666.109 696.752 666.559L713.301 676.109C714.704 676.921 716.437 676.921 717.841 676.109L735.069 666.2C735.732 665.819 736.143 665.111 736.143 664.344C736.143 663.58 735.732 662.872 735.069 662.491L717.82 652.569C716.425 651.77 714.712 651.77 713.321 652.569Z"   fill="url(#linear_fill_851A68C4-EBAE-4353-AF53-2A85DEF42182)" >
</path>
<path d="M769.902 645.139C769.902 644.371 769.487 643.66 768.82 643.279L751.578 633.371C750.188 632.57 748.473 632.57 747.079 633.371L730.499 642.941C729.727 643.398 729.255 644.228 729.255 645.125C729.255 646.021 729.727 646.854 730.499 647.311L747.058 656.871C748.465 657.674 750.188 657.674 751.59 656.871L768.82 647C769.487 646.619 769.902 645.91 769.902 645.139Z"   fill="url(#linear_fill_7EC1DECC-5498-4FD3-9C59-992E80F732D1)" >
</path>
<path d="M781.301 636.911C782.703 637.72 784.429 637.72 785.831 636.911L803.058 627C803.729 626.623 804.143 625.913 804.143 625.146C804.143 624.376 803.729 623.669 803.058 623.29L785.819 613.369C784.425 612.57 782.715 612.57 781.321 613.369L764.74 623.001C763.98 623.463 763.513 624.29 763.513 625.181C763.513 626.072 763.98 626.898 764.74 627.361L781.301 636.911Z"   fill="url(#linear_fill_875B3274-0E47-460D-8E21-1F7D63BE07C9)" >
</path>
<path d="M651.572 641.06L668.121 650.619C669.524 651.431 671.257 651.431 672.66 650.619L689.892 640.721C690.555 640.335 690.962 639.627 690.962 638.859C690.962 638.094 690.555 637.384 689.892 637L672.639 627.08C671.248 626.275 669.532 626.275 668.141 627.08L651.572 636.649C650.779 637.102 650.291 637.943 650.291 638.854C650.291 639.765 650.779 640.607 651.572 641.06Z"   fill="url(#linear_fill_CC71A816-34D5-4140-81A7-9C351BEAB082)" >
</path>
<path d="M684.042 619.609C684.042 620.523 684.53 621.364 685.32 621.82L701.881 631.379C703.284 632.191 705.017 632.191 706.421 631.379L723.649 621.471C724.312 621.087 724.723 620.382 724.723 619.614C724.723 618.85 724.312 618.142 723.649 617.76L706.4 607.84C705.009 607.035 703.292 607.035 701.901 607.84L685.32 617.399C684.53 617.854 684.042 618.699 684.042 619.609Z"   fill="url(#linear_fill_78E6582D-30DE-4127-8DE0-C1E74B525F43)" >
</path>
<path d="M640.991 594.321L657.54 603.87C658.946 604.674 660.673 604.674 662.079 603.87L679.27 593.999C679.932 593.618 680.343 592.911 680.343 592.144C680.343 591.38 679.932 590.672 679.27 590.289L661.989 580.341C660.596 579.54 658.885 579.54 657.491 580.341L640.991 589.911C640.198 590.363 639.711 591.204 639.711 592.114C639.711 593.027 640.198 593.868 640.991 594.321Z"   fill="url(#linear_fill_34E81906-A238-411B-9C51-C6D9C6D5E395)" >
</path>
<path d="M674.708 575.069L691.262 584.63C692.664 585.441 694.397 585.441 695.8 584.63L713.028 574.73C713.695 574.347 714.102 573.636 714.102 572.869C714.102 572.102 713.695 571.395 713.028 571.011L695.779 561.099C694.389 560.295 692.673 560.295 691.282 561.099L674.708 570.67C673.923 571.123 673.439 571.961 673.439 572.869C673.439 573.777 673.923 574.616 674.708 575.069Z"   fill="url(#linear_fill_90490DAD-F1EF-4505-B3E1-B73E1530593A)" >
</path>
<path d="M729.991 541.141C728.596 540.34 726.884 540.34 725.489 541.141L708.992 550.71C708.199 551.163 707.711 552.004 707.711 552.914C707.711 553.827 708.199 554.668 708.992 555.12L725.541 564.67C726.945 565.474 728.673 565.474 730.08 564.67L747.309 554.759C747.972 554.378 748.383 553.671 748.383 552.904C748.383 552.14 747.972 551.433 747.309 551.049L729.991 541.141Z"   fill="url(#linear_fill_7F951131-1834-4BF8-95A0-BFD744644ED1)" >
</path>
<path d="M763.779 521.899C762.388 521.095 760.671 521.095 759.28 521.899L742.698 531.469C741.913 531.925 741.429 532.763 741.429 533.671C741.429 534.577 741.913 535.416 742.698 535.871L759.26 545.431C760.663 546.24 762.388 546.24 763.791 545.431L781.032 535.529C781.695 535.146 782.102 534.436 782.102 533.671C782.102 532.904 781.695 532.194 781.032 531.811L763.779 521.899Z"   fill="url(#linear_fill_1564E931-0271-4E0E-AE16-3447436A6B94)" >
</path>
<path d="M615.78 578.73L633.008 568.83C633.675 568.447 634.082 567.737 634.082 566.97C634.082 566.203 633.675 565.495 633.008 565.111L615.759 555.199C614.369 554.395 612.653 554.395 611.262 555.199L594.688 564.77C593.903 565.223 593.419 566.061 593.419 566.97C593.419 567.878 593.903 568.716 594.688 569.169L611.242 578.73C612.644 579.541 614.377 579.541 615.78 578.73Z"   fill="url(#linear_fill_0BAD567B-3CD3-43B1-9DC9-41621B655E21)" >
</path>
<path d="M644.989 559.49C646.394 560.301 648.125 560.301 649.53 559.49L666.761 549.58C667.423 549.197 667.833 548.49 667.833 547.725C667.833 546.959 667.423 546.252 666.761 545.869L649.522 536.001C648.129 535.193 646.41 535.193 645.021 536.001L628.448 545.571C627.685 546.028 627.214 546.858 627.214 547.749C627.214 548.644 627.685 549.471 628.448 549.931L644.989 559.49Z"   fill="url(#linear_fill_000C15CD-E61D-4106-A706-7A472CAB0465)" >
</path>
<path d="M421.29 664.35L421.29 676.669L602.38 781.23L602.38 768.911L421.29 664.35Z"   fill="url(#linear_fill_BD95479D-8792-430E-93A3-A5D9CE0D98AB)" >
</path>
<path d="M602.38 768.912L602.38 781.23L715.57 715.879L715.57 703.56L602.38 768.912Z"   fill="url(#linear_fill_FC5884F9-266A-4804-92DA-0F7EDC1B9A11)" >
</path>
<path d="M726.88 709.341L726.88 697.03L715.57 703.56L715.57 715.88L726.88 709.341Z"   fill="url(#linear_fill_9C8132F5-4952-4C72-A617-3C041639F244)" >
</path>
<path d="M196.79 612.8C196.79 612.8 209.66 625.799 207.271 628.171C204.879 630.54 188.13 621.79 187.589 617.52C187.009 612.861 189.069 612.219 189.069 612.219L193.659 609.07L196.79 612.8Z"   fill="#012860" >
</path>
<path d="M211.909 605.56C211.909 605.56 224.779 618.559 222.391 620.931C220 623.3 203.25 614.55 202.72 610.28C202.13 605.621 204.189 604.979 204.189 604.979L208.79 601.83L211.909 605.56Z"   fill="#012860" >
</path>
<path d="M202.86 545L196.79 612.802C196.79 612.802 194.22 614.478 192.1 613.989C190.93 613.749 189.873 613.133 189.1 612.223L191.72 545L193.571 538.92L202.86 545Z"   fill="url(#linear_fill_A6BE1843-C82A-47C5-B682-8B981793B790)" >
</path>
<path d="M217.99 537.782L211.92 605.561C211.92 605.561 209.35 607.238 207.23 606.749C206.06 606.516 205.003 605.892 204.23 604.982L206.89 537.707L208.73 531.63L217.99 537.782Z"   fill="url(#linear_fill_E49F79E8-08ED-4CCE-A9BE-E7950980C6AC)" >
</path>
<path d="M183.55 511.231C183.55 511.231 183.38 518.779 182.68 525.591C181.981 532.399 181.96 544.28 181.96 544.28C181.96 544.28 194.898 546.548 207.129 544.28C219.359 542.008 224.59 537.822 224.59 537.822L220.361 504.002L213.421 500.47L183.55 511.231Z"   fill="url(#linear_fill_C3A82444-60EF-4FBF-A04E-40C96585FB9C)" >
</path>
<path d="M221.6 443.519C221.6 443.519 255.342 432.459 258.602 430.009C261.863 427.561 272.108 426.01 272.599 426.71C273.09 427.409 266.078 429.321 265.598 431.06C265.118 432.801 264.32 437.12 261.168 436.541C258.02 435.96 250.932 438.13 243.589 441.171C236.25 444.209 221.988 450.26 221.988 450.26C221.952 449.449 221.824 448.645 221.62 447.86C221.497 446.415 221.492 444.966 221.6 443.519Z"   fill="url(#linear_fill_5A727F6C-787D-4B74-946F-F5FB1FF3A85C)" >
</path>
<path d="M210.75 443.94L219.62 441.01C221.161 442.494 222.284 444.356 222.88 446.411C223.444 448.303 223.727 450.266 223.72 452.24L217.83 454.71C216.571 454.517 215.326 454.246 214.1 453.9C213.59 453.64 210.75 443.94 210.75 443.94Z"   fill="url(#linear_fill_5E3752A7-E54F-41EA-8888-4CAC63EB9238)" >
</path>
<path d="M221.99 502.19C221.99 502.19 216.061 481.713 217.37 475.892C218.679 470.071 221.822 464.642 219.72 459.398C217.619 454.161 214.132 444.058 208.812 443.167C205.769 442.711 202.815 441.778 200.061 440.41C200.061 440.41 187.111 448.931 187.779 461.329C188.452 473.733 188.912 476.327 186.322 482.81C183.732 489.287 181.79 491.189 181.97 499.397C182.151 507.612 183.552 511.231 183.552 511.231C183.552 511.231 197.359 512.998 208.992 509.351C220.621 505.703 221.99 502.19 221.99 502.19Z"   fill="url(#linear_fill_8385AC08-266B-49AC-924B-9CADB21D8CE6)" >
</path>
<path d="M190.709 458L186.099 460.66C184.844 462.416 184.001 464.433 183.641 466.558C183.441 467.879 185.38 470.62 187.93 473.612C192.031 478.37 197.691 483.76 198.661 484.9C198.767 485.027 198.863 485.162 198.949 485.3C200.109 486.979 199.329 488.469 200.071 490.69C200.529 492.091 201.02 493.689 201.339 494.79C201.696 495.961 202.876 496.681 204.081 496.461C205.018 496.288 205.934 496.011 206.81 495.63C212.03 493.52 206.02 487.171 206.02 487.171C205.089 485.346 203.929 483.652 202.57 482.12L201.37 480.649C197.441 475.999 193.79 472.649 192.051 470.131C192.046 470.108 192.051 470.058 192.051 470.058C190.38 467.579 192.861 464.868 192.861 464.868L190.709 458Z"   fill="url(#linear_fill_889A85EC-13AF-4325-B83A-405BBA6F6E14)" >
</path>
<path d="M199.35 434.16L198.97 439.85C199.104 442.002 199.673 444.103 200.64 446.03C202.13 448.54 206.31 450.89 206.31 450.89C206.31 450.89 208.64 446.03 208.17 442.89C207.7 439.75 207.7 440.099 207.97 438.8C208.147 437.521 208.208 436.229 208.15 434.94L202.56 430.94L199.35 434.16Z"   fill="url(#linear_fill_4EB292CB-4B89-4463-BB47-40B27515C178)" >
</path>
<path d="M214.759 420.48C216.812 426.925 216.04 433.937 212.629 439.78C212.629 439.78 204.4 439.13 201.409 434.331C198.421 429.53 200.68 420.579 200.68 420.579L206.36 416.73L214.759 420.48Z"   fill="url(#linear_fill_2849CCDC-4876-4E17-AC38-45F5F5BE7D52)" >
</path>
<path d="M194.59 428.81C196.251 432.389 198.941 434.939 201.411 434.34C207.13 432.921 206.56 425.67 208.08 422.65C209.6 419.631 214.76 420.481 214.76 420.481C214.76 420.481 212.901 409.27 199.941 412.63C198.378 413.004 196.934 413.764 195.74 414.841C192.089 418.29 192.53 424.349 194.59 428.81Z"   fill="#012860" >
</path>
<path d="M187.99 428.69C187.99 428.69 192.36 431.3 194.64 428.81C192.58 424.35 192.14 418.29 195.79 414.81C195.79 414.81 193.03 413.28 191.59 415.249C190.15 417.22 192.28 425.459 191.22 427C190.42 427.981 189.253 428.593 187.99 428.69Z"   fill="#012860" >
</path>
<path d="M191.359 447.511C194.07 444.349 199.27 445.77 200.45 449.759C201.007 451.595 200.885 453.567 200.11 455.32C197.76 460.82 195.97 465.319 195.97 465.319C195.97 465.319 193.97 465.86 189.65 463.319C185.33 460.781 184.83 458.779 184.83 458.779C184.83 458.779 188.599 451.501 190.951 448.01C191.077 447.836 191.214 447.669 191.359 447.511Z"   fill="url(#linear_fill_FE2C5FF0-DD65-4C2B-83B8-5DEE520C71C8)" >
</path>
<path d="M192.05 470.131C193.79 472.611 197.44 476 201.37 480.649L202.571 482.12L211.2 474.5L200.3 462.82L192.05 470.131Z"   fill="url(#linear_fill_274179BB-F86C-411E-91EA-6AE59A8E3176)" >
</path>
<path d="M181.36 479.33L191.699 491.7L198.95 485.3C198.864 485.16 198.767 485.026 198.66 484.9C197.661 483.76 192.03 478.369 187.93 473.61L181.36 479.33Z"   fill="url(#linear_fill_6FACDAF2-DDD7-47E6-95FE-839C6058A0BF)" >
</path>
<path d="M309.991 670.28C309.991 670.28 306.69 680.829 312.62 680.281C318.549 679.73 331.179 672.92 330.621 670.28C330.06 667.639 316.62 669.989 316.62 669.989L312.369 668.42L309.991 670.28Z"   fill="url(#linear_fill_A4666A47-F161-4CAD-88D5-68B2A540E43C)" >
</path>
<path d="M294.731 666.65C294.731 666.65 291.469 677.091 297.341 676.55C303.211 676.01 315.719 669.26 315.171 666.65C314.619 664.04 301.329 666.36 301.329 666.36L297.121 664.8L294.731 666.65Z"   fill="url(#linear_fill_7C339640-BDB1-4A52-B544-06C2D73666F0)" >
</path>
<path d="M302.39 605.199C302.39 605.199 305.691 616.539 305.31 623.288C304.93 630.037 309.839 671.719 309.839 671.719C309.839 671.719 310.4 672.663 312.41 672.543C313.542 672.498 314.635 672.124 315.559 671.472C315.559 671.472 316.2 605.162 314.56 600.608C312.919 596.062 302.401 598.106 302.401 598.106L302.39 605.199Z"   fill="url(#linear_fill_A87B7CA5-668E-4FC0-B21F-BB8FA9C00077)" >
</path>
<path d="M287.59 602.727C287.59 602.727 290.86 613.957 290.48 620.65C290.1 627.343 294.959 668.65 294.959 668.65C294.959 668.65 295.52 669.591 297.52 669.458C298.632 669.435 299.713 669.087 300.63 668.457C300.63 668.457 301.26 602.787 299.63 598.288C297.999 593.789 287.629 595.797 287.629 595.797L287.59 602.727Z"   fill="url(#linear_fill_8E9A10D3-937A-46A8-B460-3450D2DA6503)" >
</path>
<path d="M302.188 565.748C309.121 565.252 315.33 564.869 315.901 565.069C317.221 565.528 319.481 568.499 319.481 568.499L323.13 604.999C323.13 604.999 318.408 602.838 314.841 602.94C307.008 603.172 307.839 605.28 299.55 605.691C291.261 606.102 282.989 600.441 282.989 600.441C282.989 599.371 280.909 595.769 282.89 588.7C284.731 582.128 283.889 579.699 283.079 576.451C284.99 574.306 287.932 573.399 290.718 574.091C297.401 575.499 309.33 571.93 309.33 571.93C304.654 572.906 299.821 572.874 295.161 571.828C293.579 571.462 292.161 571.091 290.891 570.721C287.936 569.944 285.097 568.792 282.442 567.291L287.682 566.859C291.569 566.55 297.072 566.118 302.188 565.748Z"   fill="url(#linear_fill_2C70E8CC-C75E-49C1-9E15-D9D983F7EE27)" >
</path>
<path d="M283.571 505.34C283.571 505.34 274.01 522.969 274.569 530.24C275.131 537.512 293.71 540.74 293.71 540.74L292.859 521.999L283.571 505.34Z"   fill="url(#linear_fill_5705A718-30DA-4968-A134-B81F22F04C4F)" >
</path>
<path d="M310.28 476.999C310.28 476.999 313.7 482.089 312.871 483.91C312.46 484.8 316.18 489.82 313.73 491.52C310.38 493.839 305.25 493.52 299.84 489.19C294.429 484.86 297.84 476.999 297.84 476.999L303.43 472.35L310.28 476.999Z"   fill="url(#linear_fill_16C1C4DA-C97B-44C6-9783-90A2683E787C)" >
</path>
<path d="M337.64 497.001C337.64 497.001 342.84 482.81 343.74 483.701C344.64 484.589 342.65 489.13 344.26 491C345.87 492.87 348 493.721 345.9 496.359C343.8 499 338.08 502.14 338.08 502.14L337.64 497.001Z"   fill="url(#linear_fill_95DEF28C-209F-4965-9B12-F6FAC254893B)" >
</path>
<path d="M280.199 562.138C280.83 556.501 282.258 544.143 283.41 538.821C284.409 534.223 283.257 528.201 282.411 521.818C281.915 518.442 281.688 515.028 281.737 511.613C282.148 498.947 297.391 498.463 297.391 498.463C297.391 498.463 308.392 497.878 314.57 506.168C318.763 511.767 322.569 515.543 325.033 516.512C326.222 516.981 327.092 516.789 327.521 515.858C327.809 515.243 328.33 513.859 329.01 512.059C331.529 505.469 336.267 493.58 340.012 496.063C344.719 499.232 334.079 536.43 326.197 532.408C318.842 528.662 316.047 523.61 315.71 522.956C315.931 523.479 317.359 526.963 316.593 528.732C316.317 529.301 315.98 529.839 315.588 530.339L315.318 530.724C314.362 531.915 314.074 533.507 314.552 534.961C315.097 536.822 316.139 538.691 317.2 541.867C318.119 544.681 318.805 547.557 319.253 550.48C320.178 556.171 320.754 561.907 320.987 567.667C320.987 567.667 320.46 567.998 319.48 568.49C316.262 570.067 312.848 571.22 309.33 571.92C304.654 572.897 299.824 572.858 295.16 571.82C293.578 571.451 292.163 571.082 290.888 570.713C287.94 569.936 285.096 568.783 282.442 567.283C280.272 565.968 279.88 565.06 279.88 565.06C279.88 565.06 280.003 563.938 280.199 562.138Z"   fill="url(#linear_fill_3D233C2B-DB8F-4286-BA64-919F2A17606D)" >
</path>
<path d="M306.25 556.17C308.246 555.864 310.206 555.358 312.1 554.66C313.507 553.887 314.781 552.891 315.87 551.71C315.383 553.624 314.535 555.426 313.37 557.02C312.793 557.794 312.093 558.47 311.3 559.02C311.3 559.02 312.17 556.02 310.51 556.24C309.091 556.358 307.664 556.335 306.25 556.17Z"   fill="url(#linear_fill_38C1DC35-D589-40D7-BE76-F427AF0688A2)" >
</path>
<path d="M317.22 541.87C317 541.63 313.22 537.44 310.73 536.75C308.24 536.06 308.33 535.85 311.06 534.49C312.748 533.565 314.21 532.278 315.34 530.72C314.385 531.913 314.095 533.507 314.57 534.96C315.12 536.82 316.16 538.69 317.22 541.87Z" fill-rule="evenodd"  fill="url(#linear_fill_6F283A58-48EC-4E3B-AECA-768BB44BE41C)" >
</path>
<path d="M285.699 565.058C286.397 565.621 287.065 566.217 287.7 566.848C288.861 568.06 289.934 569.351 290.911 570.71C287.958 569.933 285.119 568.779 282.459 567.278C280.291 565.968 279.9 565.058 279.9 565.058C279.9 565.058 280.021 563.939 280.22 562.14C280.85 556.498 282.281 544.138 283.43 538.819C284.431 534.219 283.28 528.2 282.43 521.82C282.43 521.82 291.19 527.819 288.829 530.689C286.469 533.559 284.78 539.039 287.13 540.692C289.48 542.339 299.74 544.769 293.71 549.849C290.25 552.782 286.709 556.209 285.16 559.26C283.981 561.519 283.89 563.582 285.699 565.058Z"   fill="url(#linear_fill_9F673DC5-D06B-4670-BA18-2F9935ACDA98)" >
</path>
<path d="M328.88 517.85C329.07 519.59 325.03 516.54 325.03 516.54C326.22 517.01 327.09 516.82 327.52 515.89C327.81 515.27 328.33 513.89 329.01 512.09C328.5 513.43 328.69 516.11 328.88 517.85Z" fill-rule="evenodd"  fill="url(#linear_fill_5004DDA0-1C05-4F0B-907D-9C434C26C1A2)" >
</path>
<path d="M309.31 571.93C309.31 571.93 297.381 575.5 290.7 574.09C287.914 573.398 284.971 574.307 283.059 576.45C283 576.21 282.929 575.95 282.87 575.69C282.338 572.92 282.181 570.092 282.411 567.28C285.068 568.78 287.908 569.933 290.86 570.71C292.129 571.08 293.549 571.45 295.129 571.82C299.792 572.862 304.622 572.897 309.31 571.93Z"   fill="url(#linear_fill_D9F2CEA4-7BE1-41EE-A699-708EE1B7CCD7)" >
</path>
<path d="M301.83 468.282C309.301 469.412 310.279 477.001 310.279 477.001C310.279 477.001 305.521 477.932 307.669 484.628C309.82 491.329 311.979 494.528 308.67 496.891C305.36 499.249 306.97 501.13 307.869 503.299C309.871 508.2 310.66 516.191 299.871 515.302C289.079 514.409 279.691 508.71 282.781 500.719C284.489 496.272 291.45 494.302 287.779 491.041C285.89 489.34 285.859 484.25 287.779 478.839C290.269 471.841 294.359 467.148 301.83 468.282Z"   fill="#012860" >
</path>
<path d="M260.99 290C260.99 290 262.07 357.002 262.56 420C262.56 420 263.66 318.574 264.12 290L260.99 290Z"   fill="url(#linear_fill_82C7BFA0-2223-4358-A425-69E6D474BB13)" >
</path>
<circle cx="262.5200341796875" cy="280.809951171875" r="11.61"   fill="url(#linear_fill_7F7B3671-9A1F-4041-B4BB-19D8FC2E7796)" >
</circle>
<path d="M836.85 338.92C836.85 338.92 837.93 459.024 838.42 571.86C838.42 571.86 839.53 390.12 839.99 338.92L836.85 338.92Z"   fill="url(#linear_fill_85817AC6-D97D-416C-B593-97D1ADA663DE)" >
</path>
<circle cx="838.42005859375" cy="329.7398828125" r="11.61"   fill="url(#linear_fill_3A4A346B-D224-45C2-8200-241A5061935F)" >
</circle>
<path d="M243.99 609.34C243.99 609.34 245.07 676.342 245.56 739.34C245.56 739.34 246.67 637.914 247.13 609.34L243.99 609.34Z"   fill="url(#linear_fill_62DCF5DF-99A5-470C-B3D1-BB728CBC60C3)" >
</path>
<circle cx="245.579970703125" cy="600.160048828125" r="11.61"   fill="url(#linear_fill_D2CD7F8E-D7A0-4570-B2EE-88CCA28ADC50)" >
</circle>
<defs>
<linearGradient id="linear_fill_D761EF49-C626-47F3-9ACF-8E86F865385A" x1="50.78997802734375" y1="611.56982421875" x2="245.5799560546875" y2="611.56982421875" gradientUnits="userSpaceOnUse">
<stop offset="0" stop-color="#E9EFFF"  />
<stop offset="0.52" stop-color="#F2F6FF"  />
<stop offset="1" stop-color="#FFFFFF"  />
</linearGradient>
<linearGradient id="linear_fill_019F09AB-06EC-43C7-83E8-CD7AC2F8EC3B" x1="303.0400390625" y1="698.699951171875" x2="604.27001953125" y2="698.699951171875" gradientUnits="userSpaceOnUse">
<stop offset="0" stop-color="#E9EFFF"  />
<stop offset="0.52" stop-color="#F2F6FF"  />
<stop offset="1" stop-color="#FFFFFF"  />
</linearGradient>
<linearGradient id="linear_fill_87822B07-C207-4494-A598-8A9712C3B1F9" x1="416.8599853515625" y1="488.389892578125" x2="619.3499755859375" y2="488.389892578125" gradientUnits="userSpaceOnUse">
<stop offset="0" stop-color="#FFFFFF"  />
<stop offset="0.48" stop-color="#F2F6FF"  />
<stop offset="1" stop-color="#E9EFFF"  />
</linearGradient>
<linearGradient id="linear_fill_896D11CF-4B88-43BD-8E35-523AF6DA2DCB" x1="228.72003173828125" y1="442.7998046875" x2="358.4200439453125" y2="442.7998046875" gradientUnits="userSpaceOnUse">
<stop offset="0" stop-color="#FFFFFF"  />
<stop offset="0.48" stop-color="#F2F6FF"  />
<stop offset="1" stop-color="#E9EFFF"  />
</linearGradient>
<linearGradient id="linear_fill_D5520D4D-A701-4882-94A7-D9141DD0745E" x1="-0.010009765625" y1="383.5400390625" x2="215.489990234375" y2="383.5400390625" gradientUnits="userSpaceOnUse">
<stop offset="0" stop-color="#6AAEFF"  />
<stop offset="1" stop-color="#005EFF"  />
</linearGradient>
<linearGradient id="linear_fill_921EDDC1-83BA-4C99-8DFC-2E15D9885B0E" x1="49.6600341796875" y1="331.5" x2="49.71002197265625" y2="470.340087890625" gradientUnits="userSpaceOnUse">
<stop offset="0" stop-color="#004DAA"  />
<stop offset="1" stop-color="#00276A"  />
</linearGradient>
<linearGradient id="linear_fill_BB4C9BD2-6BD6-43AE-AF85-9D93ECF07E84" x1="92.51995849609375" y1="275.760009765625" x2="91.8299560546875" y2="456.5" gradientUnits="userSpaceOnUse">
<stop offset="0" stop-color="#F22AFF"  />
<stop offset="1" stop-color="#6C00E9"  />
</linearGradient>
<linearGradient id="linear_fill_945E731C-DB34-4E9B-B950-3647A759A4A7" x1="133.530029296875" y1="353.070068359375" x2="136.83001708984375" y2="436.66015625" gradientUnits="userSpaceOnUse">
<stop offset="0" stop-color="#6AAEFF"  />
<stop offset="1" stop-color="#005EFF"  />
</linearGradient>
<linearGradient id="linear_fill_2E5E208B-6C4E-4AE4-BC39-6AD43AD042EF" x1="176.71002197265625" y1="363.150146484375" x2="178.47003173828125" y2="407.22021484375" gradientUnits="userSpaceOnUse">
<stop offset="0" stop-color="#FF0007"  />
<stop offset="1" stop-color="#FFAAAC"  />
</linearGradient>
<linearGradient id="linear_fill_85A3F9CD-0111-4244-9ECD-BCD3B296D4DA" x1="310.6600341796875" y1="231.56982421875" x2="504.280029296875" y2="231.56982421875" gradientUnits="userSpaceOnUse">
<stop offset="0" stop-color="#AAC9FF"  />
<stop offset="1" stop-color="#E9F1FF"  />
</linearGradient>
<linearGradient id="linear_fill_1398DA94-4690-40C5-84A5-C3B58E65BE7F" x1="338.27001953125" y1="265.740234375" x2="504.27001953125" y2="265.740234375" gradientUnits="userSpaceOnUse">
<stop offset="0" stop-color="#E9F1FF"  />
<stop offset="1" stop-color="#D4E0FF"  />
</linearGradient>
<linearGradient id="linear_fill_FA2C27DA-F1FC-4E70-8B4A-7A2D209E49CE" x1="365.949951171875" y1="297.7099609375" x2="531.949951171875" y2="297.7099609375" gradientUnits="userSpaceOnUse">
<stop offset="0" stop-color="#D4E0FF"  />
<stop offset="1" stop-color="#E9F1FF"  />
</linearGradient>
<linearGradient id="linear_fill_60E9FA04-83D3-4A17-973C-6F705ECFEAC4" x1="504.280029296875" y1="265.739990234375" x2="587.27001953125" y2="265.739990234375" gradientUnits="userSpaceOnUse">
<stop offset="0" stop-color="#AAC9FF"  />
<stop offset="1" stop-color="#E9F1FF"  />
</linearGradient>
<linearGradient id="linear_fill_B2B89966-C322-4034-AA00-F29593D32B65" x1="407.43994140625" y1="321.66015625" x2="573.43994140625" y2="321.66015625" gradientUnits="userSpaceOnUse">
<stop offset="0" stop-color="#E9F1FF"  />
<stop offset="1" stop-color="#D4E0FF"  />
</linearGradient>
<linearGradient id="linear_fill_313DB790-A884-4C73-9A1D-BAC4854B87B4" x1="461.6199951171875" y1="389.669921875" x2="546.9200439453125" y2="389.669921875" gradientUnits="userSpaceOnUse">
<stop offset="0" stop-color="#F22AFF"  />
<stop offset="1" stop-color="#6C00E9"  />
</linearGradient>
<linearGradient id="linear_fill_E305D05F-6EAF-4785-B8FC-35DB97C6077D" x1="497.1400146484375" y1="348.639892578125" x2="546.8599853515625" y2="348.639892578125" gradientUnits="userSpaceOnUse">
<stop offset="0" stop-color="#6AAEFF"  />
<stop offset="1" stop-color="#005EFF"  />
</linearGradient>
<linearGradient id="linear_fill_E52B25DA-E296-4A83-B6E7-8112429E88D3" x1="541.75" y1="44.969970703125" x2="597.699951171875" y2="44.969970703125" gradientUnits="userSpaceOnUse">
<stop offset="0" stop-color="#3F81FF"  />
<stop offset="1" stop-color="#6AAEFF"  />
</linearGradient>
<linearGradient id="linear_fill_EF83026C-59BE-44A5-A8BE-F80FBC58E9D1" x1="459.3900146484375" y1="23.659912109375" x2="493.010009765625" y2="23.659912109375" gradientUnits="userSpaceOnUse">
<stop offset="0" stop-color="#D4E0FF"  />
<stop offset="1" stop-color="#E9F1FF"  />
</linearGradient>
<linearGradient id="linear_fill_C1609DA5-4429-434D-B238-10FACE2B2931" x1="255.27001953125" y1="139.02001953125" x2="326.030029296875" y2="139.02001953125" gradientUnits="userSpaceOnUse">
<stop offset="0" stop-color="#D4E0FF"  />
<stop offset="1" stop-color="#E9F1FF"  />
</linearGradient>
<linearGradient id="linear_fill_44F437F0-0297-48A2-9287-ED67563AC764" x1="344.22998046875" y1="71.56005859375" x2="376.3099365234375" y2="71.56005859375" gradientUnits="userSpaceOnUse">
<stop offset="0" stop-color="#3F81FF"  />
<stop offset="1" stop-color="#6AAEFF"  />
</linearGradient>
<linearGradient id="linear_fill_87F915DF-8DED-44A3-9078-8138DCDE7FF7" x1="310.6199951171875" y1="377.56982421875" x2="393.6099853515625" y2="377.56982421875" gradientUnits="userSpaceOnUse">
<stop offset="0" stop-color="#6AAEFF"  />
<stop offset="1" stop-color="#005EFF"  />
</linearGradient>
<linearGradient id="linear_fill_6F10A41A-BACD-46DE-A5C4-3285F64DE0FA" x1="642.669921875" y1="430.68994140625" x2="771.409912109375" y2="430.68994140625" gradientUnits="userSpaceOnUse">
<stop offset="0" stop-color="#6AAEFF"  />
<stop offset="1" stop-color="#005EFF"  />
</linearGradient>
<linearGradient id="linear_fill_C4774C78-767B-46F0-8139-8D79EC811C56" x1="642.669921875" y1="458.5400390625" x2="707.0499267578125" y2="458.5400390625" gradientUnits="userSpaceOnUse">
<stop offset="0" stop-color="#E9F1FF"  />
<stop offset="1" stop-color="#D4E0FF"  />
</linearGradient>
<linearGradient id="linear_fill_113EBBFE-96CB-4B2D-B9A1-86C74A641355" x1="707.050048828125" y1="458.52001953125" x2="771.4100341796875" y2="458.52001953125" gradientUnits="userSpaceOnUse">
<stop offset="0" stop-color="#E9F1FF"  />
<stop offset="1" stop-color="#D4E0FF"  />
</linearGradient>
<linearGradient id="linear_fill_B34A3EAD-AFFD-4CCA-B32A-2F2DFE1883E9" x1="642.6099853515625" y1="402.72998046875" x2="771.3499755859375" y2="402.72998046875" gradientUnits="userSpaceOnUse">
<stop offset="0" stop-color="#F22AFF"  />
<stop offset="1" stop-color="#6C00E9"  />
</linearGradient>
<linearGradient id="linear_fill_FC184857-9142-4E28-B2A8-270E045C9C59" x1="642.6099853515625" y1="430.580078125" x2="706.97998046875" y2="430.580078125" gradientUnits="userSpaceOnUse">
<stop offset="0" stop-color="#E9F1FF"  />
<stop offset="1" stop-color="#D4E0FF"  />
</linearGradient>
<linearGradient id="linear_fill_298A528E-4037-4050-A4C8-248D3E0D0AB8" x1="706.97998046875" y1="430.56005859375" x2="771.3499755859375" y2="430.56005859375" gradientUnits="userSpaceOnUse">
<stop offset="0" stop-color="#E9F1FF"  />
<stop offset="1" stop-color="#D4E0FF"  />
</linearGradient>
<linearGradient id="linear_fill_6A2A0831-11B5-4F00-949B-A7B3A2A30525" x1="642.5999755859375" y1="374.8798828125" x2="771.3399658203125" y2="374.8798828125" gradientUnits="userSpaceOnUse">
<stop offset="0" stop-color="#FF0007"  />
<stop offset="1" stop-color="#FFAAAC"  />
</linearGradient>
<linearGradient id="linear_fill_B517B7A1-7E03-4C7A-8332-E4A5410FF08F" x1="642.5999755859375" y1="402.72998046875" x2="706.97998046875" y2="402.72998046875" gradientUnits="userSpaceOnUse">
<stop offset="0" stop-color="#E9F1FF"  />
<stop offset="1" stop-color="#D4E0FF"  />
</linearGradient>
<linearGradient id="linear_fill_FB214C63-2644-4B31-A347-F75D01B4E106" x1="706.97998046875" y1="402.710205078125" x2="771.3399658203125" y2="402.710205078125" gradientUnits="userSpaceOnUse">
<stop offset="0" stop-color="#E9F1FF"  />
<stop offset="1" stop-color="#D4E0FF"  />
</linearGradient>
<linearGradient id="linear_fill_D11A4725-F08C-44CD-ABFF-83EA92930985" x1="421.2900390625" y1="677.419921875" x2="715.570068359375" y2="677.419921875" gradientUnits="userSpaceOnUse">
<stop offset="0" stop-color="#AAC9FF"  />
<stop offset="1" stop-color="#E9F1FF"  />
</linearGradient>
<linearGradient id="linear_fill_7E32E69C-EC3A-4324-B12F-8A9FA20052E2" x1="602.3800048828125" y1="664.3798828125" x2="726.8900146484375" y2="664.3798828125" gradientUnits="userSpaceOnUse">
<stop offset="0" stop-color="#F22AFF"  />
<stop offset="1" stop-color="#6C00E9"  />
</linearGradient>
<linearGradient id="linear_fill_3A3599C7-B7EB-43BB-B06E-E26F77C7117E" x1="668.1070326817977" y1="685.2391597736589" x2="706.9231108554866" y2="708.7284972529085" gradientUnits="userSpaceOnUse">
<stop offset="0" stop-color="#E9F1FF"  />
<stop offset="1" stop-color="#AAC9FF"  />
</linearGradient>
<linearGradient id="linear_fill_C0CF83E0-3CAE-429A-AF2E-27D8F132BA12" x1="602.1349770382259" y1="666.4355328128148" x2="661.4810015022002" y2="700.864902256959" gradientUnits="userSpaceOnUse">
<stop offset="0" stop-color="#E9F1FF"  />
<stop offset="1" stop-color="#AAC9FF"  />
</linearGradient>
<linearGradient id="linear_fill_0E9672C3-DF1B-4336-8FB6-866AF6096D7F" x1="620.2124578195586" y1="609.0011523041134" x2="650.27557813668" y2="627.0791830817808" gradientUnits="userSpaceOnUse">
<stop offset="0" stop-color="#E9F1FF"  />
<stop offset="1" stop-color="#AAC9FF"  />
</linearGradient>
<linearGradient id="linear_fill_C51CE051-94F5-4906-87EC-AE96C387F7C6" x1="565.2741361672498" y1="588.1422866576016" x2="605.1251254360353" y2="611.8699720546044" gradientUnits="userSpaceOnUse">
<stop offset="0" stop-color="#E9F1FF"  />
<stop offset="1" stop-color="#AAC9FF"  />
</linearGradient>
<linearGradient id="linear_fill_851A68C4-EBAE-4353-AF53-2A85DEF42182" x1="695.469970703125" y1="664.35009765625" x2="736.139892578125" y2="664.35009765625" gradientUnits="userSpaceOnUse">
<stop offset="0" stop-color="#FFFFFF"  />
<stop offset="0.48" stop-color="#F2F6FF"  />
<stop offset="1" stop-color="#E9EFFF"  />
</linearGradient>
<linearGradient id="linear_fill_7EC1DECC-5498-4FD3-9C59-992E80F732D1" x1="729.22998046875" y1="645.110107421875" x2="769.9000244140625" y2="645.110107421875" gradientUnits="userSpaceOnUse">
<stop offset="0" stop-color="#FFFFFF"  />
<stop offset="0.48" stop-color="#F2F6FF"  />
<stop offset="1" stop-color="#E9EFFF"  />
</linearGradient>
<linearGradient id="linear_fill_875B3274-0E47-460D-8E21-1F7D63BE07C9" x1="763.469970703125" y1="625.150146484375" x2="804.1400146484375" y2="625.150146484375" gradientUnits="userSpaceOnUse">
<stop offset="0" stop-color="#FFFFFF"  />
<stop offset="0.48" stop-color="#F2F6FF"  />
<stop offset="1" stop-color="#E9EFFF"  />
</linearGradient>
<linearGradient id="linear_fill_CC71A816-34D5-4140-81A7-9C351BEAB082" x1="650.2900390625" y1="638.860107421875" x2="690.9599609375" y2="638.860107421875" gradientUnits="userSpaceOnUse">
<stop offset="0" stop-color="#FFFFFF"  />
<stop offset="0.48" stop-color="#F2F6FF"  />
<stop offset="1" stop-color="#E9EFFF"  />
</linearGradient>
<linearGradient id="linear_fill_78E6582D-30DE-4127-8DE0-C1E74B525F43" x1="684.050048828125" y1="619.610107421875" x2="724.7200927734375" y2="619.610107421875" gradientUnits="userSpaceOnUse">
<stop offset="0" stop-color="#FFFFFF"  />
<stop offset="0.48" stop-color="#F2F6FF"  />
<stop offset="1" stop-color="#E9EFFF"  />
</linearGradient>
<linearGradient id="linear_fill_34E81906-A238-411B-9C51-C6D9C6D5E395" x1="639.679931640625" y1="592.110107421875" x2="680.3399658203125" y2="592.110107421875" gradientUnits="userSpaceOnUse">
<stop offset="0" stop-color="#FFFFFF"  />
<stop offset="0.48" stop-color="#F2F6FF"  />
<stop offset="1" stop-color="#E9EFFF"  />
</linearGradient>
<linearGradient id="linear_fill_90490DAD-F1EF-4505-B3E1-B73E1530593A" x1="673.429931640625" y1="572.8701171875" x2="714.0999755859375" y2="572.8701171875" gradientUnits="userSpaceOnUse">
<stop offset="0" stop-color="#FFFFFF"  />
<stop offset="0.48" stop-color="#F2F6FF"  />
<stop offset="1" stop-color="#E9EFFF"  />
</linearGradient>
<linearGradient id="linear_fill_7F951131-1834-4BF8-95A0-BFD744644ED1" x1="707.669921875" y1="552.909912109375" x2="748.3399658203125" y2="552.909912109375" gradientUnits="userSpaceOnUse">
<stop offset="0" stop-color="#FFFFFF"  />
<stop offset="0.48" stop-color="#F2F6FF"  />
<stop offset="1" stop-color="#E9EFFF"  />
</linearGradient>
<linearGradient id="linear_fill_1564E931-0271-4E0E-AE16-3447436A6B94" x1="741.429931640625" y1="533.670166015625" x2="782.0999755859375" y2="533.670166015625" gradientUnits="userSpaceOnUse">
<stop offset="0" stop-color="#FFFFFF"  />
<stop offset="0.48" stop-color="#F2F6FF"  />
<stop offset="1" stop-color="#E9EFFF"  />
</linearGradient>
<linearGradient id="linear_fill_0BAD567B-3CD3-43B1-9DC9-41621B655E21" x1="593.419921875" y1="566.97021484375" x2="634.0899658203125" y2="566.97021484375" gradientUnits="userSpaceOnUse">
<stop offset="0" stop-color="#FFFFFF"  />
<stop offset="0.48" stop-color="#F2F6FF"  />
<stop offset="1" stop-color="#E9EFFF"  />
</linearGradient>
<linearGradient id="linear_fill_000C15CD-E61D-4106-A706-7A472CAB0465" x1="627.1800537109375" y1="547.719970703125" x2="667.840087890625" y2="547.719970703125" gradientUnits="userSpaceOnUse">
<stop offset="0" stop-color="#FFFFFF"  />
<stop offset="0.48" stop-color="#F2F6FF"  />
<stop offset="1" stop-color="#E9EFFF"  />
</linearGradient>
<linearGradient id="linear_fill_BD95479D-8792-430E-93A3-A5D9CE0D98AB" x1="421.2900390625" y1="722.7900390625" x2="602.3800048828125" y2="722.7900390625" gradientUnits="userSpaceOnUse">
<stop offset="0" stop-color="#6AAEFF"  />
<stop offset="1" stop-color="#005EFF"  />
</linearGradient>
<linearGradient id="linear_fill_FC5884F9-266A-4804-92DA-0F7EDC1B9A11" x1="602.3800048828125" y1="742.39013671875" x2="715.570068359375" y2="742.39013671875" gradientUnits="userSpaceOnUse">
<stop offset="0" stop-color="#6AAEFF"  />
<stop offset="1" stop-color="#005EFF"  />
</linearGradient>
<linearGradient id="linear_fill_9C8132F5-4952-4C72-A617-3C041639F244" x1="715.570068359375" y1="706.449951171875" x2="726.8900146484375" y2="706.449951171875" gradientUnits="userSpaceOnUse">
<stop offset="0" stop-color="#F22AFF"  />
<stop offset="1" stop-color="#6C00E9"  />
</linearGradient>
<linearGradient id="linear_fill_A6BE1843-C82A-47C5-B682-8B981793B790" x1="202.8599853515625" y1="576.469970703125" x2="189.0699462890625" y2="576.469970703125" gradientUnits="userSpaceOnUse">
<stop offset="0" stop-color="#FF7F83"  />
<stop offset="1" stop-color="#FFD4D5"  />
</linearGradient>
<linearGradient id="linear_fill_E49F79E8-08ED-4CCE-A9BE-E7950980C6AC" x1="1452.4599609375" y1="569.22998046875" x2="1466.25" y2="569.22998046875" gradientUnits="userSpaceOnUse">
<stop offset="0" stop-color="#FF7F83"  />
<stop offset="1" stop-color="#FFD4D5"  />
</linearGradient>
<linearGradient id="linear_fill_C3A82444-60EF-4FBF-A04E-40C96585FB9C" x1="181.96002197265625" y1="522.869873046875" x2="224.59002685546875" y2="522.869873046875" gradientUnits="userSpaceOnUse">
<stop offset="0" stop-color="#F22AFF"  />
<stop offset="1" stop-color="#6C00E9"  />
</linearGradient>
<linearGradient id="linear_fill_5A727F6C-787D-4B74-946F-F5FB1FF3A85C" x1="1397.840087890625" y1="438.39013671875" x2="1448.93994140625" y2="438.39013671875" gradientUnits="userSpaceOnUse">
<stop offset="0" stop-color="#FF7F83"  />
<stop offset="1" stop-color="#FFD4D5"  />
</linearGradient>
<linearGradient id="linear_fill_5E3752A7-E54F-41EA-8888-4CAC63EB9238" x1="223.72998046875" y1="447.860107421875" x2="210.75" y2="447.860107421875" gradientUnits="userSpaceOnUse">
<stop offset="0" stop-color="#E9EFFF"  />
<stop offset="1" stop-color="#D4E3FF"  />
</linearGradient>
<linearGradient id="linear_fill_8385AC08-266B-49AC-924B-9CADB21D8CE6" x1="1448.4599609375" y1="476.039794921875" x2="1488.469970703125" y2="476.039794921875" gradientUnits="userSpaceOnUse">
<stop offset="0" stop-color="#E9EFFF"  />
<stop offset="1" stop-color="#D4E3FF"  />
</linearGradient>
<linearGradient id="linear_fill_889A85EC-13AF-4325-B83A-405BBA6F6E14" x1="1461.489990234375" y1="477.260009765625" x2="1486.81005859375" y2="477.260009765625" gradientUnits="userSpaceOnUse">
<stop offset="0" stop-color="#FF7F83"  />
<stop offset="1" stop-color="#FFD4D5"  />
</linearGradient>
<linearGradient id="linear_fill_4EB292CB-4B89-4463-BB47-40B27515C178" x1="1462.2099609375" y1="440.89990234375" x2="1471.469970703125" y2="440.89990234375" gradientUnits="userSpaceOnUse">
<stop offset="0" stop-color="#FF7F83"  />
<stop offset="1" stop-color="#FFD4D5"  />
</linearGradient>
<linearGradient id="linear_fill_2849CCDC-4876-4E17-AC38-45F5F5BE7D52" x1="1454.56005859375" y1="428.260009765625" x2="1470.580078125" y2="428.260009765625" gradientUnits="userSpaceOnUse">
<stop offset="0" stop-color="#FF7F83"  />
<stop offset="1" stop-color="#FFD4D5"  />
</linearGradient>
<linearGradient id="linear_fill_FE2C5FF0-DD65-4C2B-83B8-5DEE520C71C8" x1="1469.64013671875" y1="455.60009765625" x2="1485.60009765625" y2="455.60009765625" gradientUnits="userSpaceOnUse">
<stop offset="0" stop-color="#E9EFFF"  />
<stop offset="1" stop-color="#D4E3FF"  />
</linearGradient>
<linearGradient id="linear_fill_274179BB-F86C-411E-91EA-6AE59A8E3176" x1="211.2099609375" y1="472.469970703125" x2="192.010009765625" y2="472.469970703125" gradientUnits="userSpaceOnUse">
<stop offset="0" stop-color="#F22AFF"  />
<stop offset="1" stop-color="#6C00E9"  />
</linearGradient>
<linearGradient id="linear_fill_6FACDAF2-DDD7-47E6-95FE-839C6058A0BF" x1="198.95001220703125" y1="482.64990234375" x2="181.3599853515625" y2="482.64990234375" gradientUnits="userSpaceOnUse">
<stop offset="0" stop-color="#F22AFF"  />
<stop offset="1" stop-color="#6C00E9"  />
</linearGradient>
<linearGradient id="linear_fill_A4666A47-F161-4CAD-88D5-68B2A540E43C" x1="309.030029296875" y1="674.35986328125" x2="330.610107421875" y2="674.35986328125" gradientUnits="userSpaceOnUse">
<stop offset="0" stop-color="#002255"  />
<stop offset="1" stop-color="#003A7F"  />
</linearGradient>
<linearGradient id="linear_fill_7C339640-BDB1-4A52-B544-06C2D73666F0" x1="293.830078125" y1="670.68994140625" x2="315.1900634765625" y2="670.68994140625" gradientUnits="userSpaceOnUse">
<stop offset="0" stop-color="#002255"  />
<stop offset="1" stop-color="#003A7F"  />
</linearGradient>
<linearGradient id="linear_fill_A87B7CA5-668E-4FC0-B21F-BB8FA9C00077" x1="302.3900146484375" y1="635.10009765625" x2="315.6800537109375" y2="635.10009765625" gradientUnits="userSpaceOnUse">
<stop offset="0" stop-color="#FF7F83"  />
<stop offset="1" stop-color="#FFD4D5"  />
</linearGradient>
<linearGradient id="linear_fill_8E9A10D3-937A-46A8-B460-3450D2DA6503" x1="287.5899658203125" y1="632.340087890625" x2="300.75" y2="632.340087890625" gradientUnits="userSpaceOnUse">
<stop offset="0" stop-color="#FF7F83"  />
<stop offset="1" stop-color="#FFD4D5"  />
</linearGradient>
<linearGradient id="linear_fill_2C70E8CC-C75E-49C1-9E15-D9D983F7EE27" x1="282.0299072265625" y1="585.360107421875" x2="323.1300048828125" y2="585.360107421875" gradientUnits="userSpaceOnUse">
<stop offset="0" stop-color="#6AAEFF"  />
<stop offset="1" stop-color="#005EFF"  />
</linearGradient>
<linearGradient id="linear_fill_5705A718-30DA-4968-A134-B81F22F04C4F" x1="274.550048828125" y1="523.0400390625" x2="293.7100830078125" y2="523.0400390625" gradientUnits="userSpaceOnUse">
<stop offset="0" stop-color="#D4E3FF"  />
<stop offset="1" stop-color="#E9EFFF"  />
</linearGradient>
<linearGradient id="linear_fill_16C1C4DA-C97B-44C6-9783-90A2683E787C" x1="296.7799072265625" y1="482.630126953125" x2="314.5699462890625" y2="482.630126953125" gradientUnits="userSpaceOnUse">
<stop offset="0" stop-color="#FF7F83"  />
<stop offset="1" stop-color="#FFD4D5"  />
</linearGradient>
<linearGradient id="linear_fill_95DEF28C-209F-4965-9B12-F6FAC254893B" x1="337.6400146484375" y1="492.93017578125" x2="346.780029296875" y2="492.93017578125" gradientUnits="userSpaceOnUse">
<stop offset="0" stop-color="#FF7F83"  />
<stop offset="1" stop-color="#FFD4D5"  />
</linearGradient>
<linearGradient id="linear_fill_3D233C2B-DB8F-4286-BA64-919F2A17606D" x1="279.8499755859375" y1="534.18994140625" x2="341.1600341796875" y2="534.18994140625" gradientUnits="userSpaceOnUse">
<stop offset="0" stop-color="#E9EFFF"  />
<stop offset="1" stop-color="#D4E3FF"  />
</linearGradient>
<linearGradient id="linear_fill_38C1DC35-D589-40D7-BE76-F427AF0688A2" x1="306.25" y1="555.35986328125" x2="315.8699951171875" y2="555.35986328125" gradientUnits="userSpaceOnUse">
<stop offset="0" stop-color="#6AAEFF"  />
<stop offset="1" stop-color="#005EFF"  />
</linearGradient>
<linearGradient id="linear_fill_6F283A58-48EC-4E3B-AECA-768BB44BE41C" x1="308.9100341796875" y1="536.300048828125" x2="317.219970703125" y2="536.300048828125" gradientUnits="userSpaceOnUse">
<stop offset="0" stop-color="#94B9FF"  />
<stop offset="0.19" stop-color="#9ABDFF"  />
<stop offset="0.44" stop-color="#ABC8FF"  />
<stop offset="0.72" stop-color="#C7DBFF"  />
<stop offset="1" stop-color="#E9F2FF"  />
</linearGradient>
<linearGradient id="linear_fill_9F673DC5-D06B-4670-BA18-2F9935ACDA98" x1="279.8499755859375" y1="546.280029296875" x2="295.580078125" y2="546.280029296875" gradientUnits="userSpaceOnUse">
<stop offset="0" stop-color="#94B9FF"  />
<stop offset="0.19" stop-color="#9ABDFF"  />
<stop offset="0.44" stop-color="#ABC8FF"  />
<stop offset="0.72" stop-color="#C7DBFF"  />
<stop offset="1" stop-color="#E9F2FF"  />
</linearGradient>
<linearGradient id="linear_fill_5004DDA0-1C05-4F0B-907D-9C434C26C1A2" x1="325.030029296875" y1="515.239990234375" x2="329.010009765625" y2="515.239990234375" gradientUnits="userSpaceOnUse">
<stop offset="0" stop-color="#E9F2FF"  />
<stop offset="0.28" stop-color="#C7DBFF"  />
<stop offset="0.56" stop-color="#ABC8FF"  />
<stop offset="0.81" stop-color="#9ABDFF"  />
<stop offset="1" stop-color="#94B9FF"  />
</linearGradient>
<linearGradient id="linear_fill_D9F2CEA4-7BE1-41EE-A699-708EE1B7CCD7" x1="282.3099365234375" y1="571.860107421875" x2="309.3099365234375" y2="571.860107421875" gradientUnits="userSpaceOnUse">
<stop offset="0" stop-color="#6AAEFF"  />
<stop offset="1" stop-color="#002294"  />
</linearGradient>
<linearGradient id="linear_fill_82C7BFA0-2223-4358-A425-69E6D474BB13" x1="260.949951171875" y1="354.97998046875" x2="264.0799560546875" y2="354.97998046875" gradientUnits="userSpaceOnUse">
<stop offset="0" stop-color="#E9F2FF"  />
<stop offset="0.28" stop-color="#C7DBFF"  />
<stop offset="0.56" stop-color="#ABC8FF"  />
<stop offset="0.81" stop-color="#9ABDFF"  />
<stop offset="1" stop-color="#94B9FF"  />
</linearGradient>
<linearGradient id="linear_fill_7F7B3671-9A1F-4041-B4BB-19D8FC2E7796" x1="274.12003417968754" y1="280.809951171875" x2="250.91003417968753" y2="280.809951171875" gradientUnits="userSpaceOnUse">
<stop offset="0" stop-color="#E9F2FF"  />
<stop offset="0.28" stop-color="#C7DBFF"  />
<stop offset="0.56" stop-color="#ABC8FF"  />
<stop offset="0.81" stop-color="#9ABDFF"  />
<stop offset="1" stop-color="#94B9FF"  />
</linearGradient>
<linearGradient id="linear_fill_85817AC6-D97D-416C-B593-97D1ADA663DE" x1="836.8499755859375" y1="455.389892578125" x2="839.989990234375" y2="455.389892578125" gradientUnits="userSpaceOnUse">
<stop offset="0" stop-color="#E9F2FF"  />
<stop offset="0.28" stop-color="#C7DBFF"  />
<stop offset="0.56" stop-color="#ABC8FF"  />
<stop offset="0.81" stop-color="#9ABDFF"  />
<stop offset="1" stop-color="#94B9FF"  />
</linearGradient>
<linearGradient id="linear_fill_3A4A346B-D224-45C2-8200-241A5061935F" x1="850.03005859375" y1="329.7398828125" x2="826.8200585937501" y2="329.7398828125" gradientUnits="userSpaceOnUse">
<stop offset="0" stop-color="#E9F2FF"  />
<stop offset="0.28" stop-color="#C7DBFF"  />
<stop offset="0.56" stop-color="#ABC8FF"  />
<stop offset="0.81" stop-color="#9ABDFF"  />
<stop offset="1" stop-color="#94B9FF"  />
</linearGradient>
<linearGradient id="linear_fill_62DCF5DF-99A5-470C-B3D1-BB728CBC60C3" x1="244.010009765625" y1="674.340087890625" x2="247.1500244140625" y2="674.340087890625" gradientUnits="userSpaceOnUse">
<stop offset="0" stop-color="#E9F2FF"  />
<stop offset="0.28" stop-color="#C7DBFF"  />
<stop offset="0.56" stop-color="#ABC8FF"  />
<stop offset="0.81" stop-color="#9ABDFF"  />
<stop offset="1" stop-color="#94B9FF"  />
</linearGradient>
<linearGradient id="linear_fill_D2CD7F8E-D7A0-4570-B2EE-88CCA28ADC50" x1="257.18997070312497" y1="600.160048828125" x2="233.96997070312497" y2="600.160048828125" gradientUnits="userSpaceOnUse">
<stop offset="0" stop-color="#E9F2FF"  />
<stop offset="0.28" stop-color="#C7DBFF"  />
<stop offset="0.56" stop-color="#ABC8FF"  />
<stop offset="0.81" stop-color="#9ABDFF"  />
<stop offset="1" stop-color="#94B9FF"  />
</linearGradient>
</defs>
</svg>
